<?xml version="1.0" standalone="no"?>
<!DOCTYPE svg PUBLIC "-//W3C//DTD SVG 20010904//EN"
 "http://www.w3.org/TR/2001/REC-SVG-20010904/DTD/svg10.dtd">
<svg version="1.0" xmlns="http://www.w3.org/2000/svg"
 width="162.000000pt" height="176.000000pt" viewBox="0 0 162.000000 176.000000"
 preserveAspectRatio="xMidYMid meet">

<g transform="translate(0.000000,176.000000) scale(0.100000,-0.100000)"
fill="#000000" stroke="none">
<path d="M406 1589 c-14 -11 -26 -29 -26 -40 0 -31 -36 -93 -72 -125 -36 -32
-67 -47 -135 -64 -25 -6 -47 -19 -53 -31 -15 -28 -9 -354 7 -370 27 -27 33 4
33 182 l0 179 28 0 c91 1 211 109 236 213 l6 27 369 0 368 0 11 -38 c27 -90
108 -169 196 -193 23 -6 47 -13 54 -15 9 -2 12 -47 12 -178 0 -173 6 -204 33
-177 8 8 13 71 15 186 4 165 3 174 -17 194 -12 12 -31 21 -43 21 -37 1 -110
38 -151 78 -25 25 -43 54 -53 89 -25 86 -8 83 -425 83 -355 0 -367 -1 -393
-21z"/>
<path d="M504 1500 c-12 -4 -33 -28 -47 -52 -35 -60 -95 -116 -169 -159 l-63
-35 0 -160 c1 -211 27 -313 130 -489 90 -155 358 -385 447 -385 39 0 181 95
271 180 137 130 234 288 278 458 21 80 38 326 25 375 -4 19 -24 35 -67 59 -71
37 -141 103 -170 160 -11 21 -31 43 -45 48 -31 12 -561 12 -590 0z m611 -90
c37 -64 74 -99 155 -148 l65 -40 -2 -133 c-2 -158 -23 -251 -84 -378 -85 -179
-247 -348 -418 -436 -33 -17 -35 -16 -75 6 -125 68 -271 204 -349 325 -99 153
-136 277 -144 480 l-6 140 58 29 c64 33 150 114 180 169 l20 36 285 0 285 0
30 -50z"/>
<path d="M715 1361 c-85 -39 -125 -110 -125 -221 l0 -70 -30 0 c-17 0 -39 -9
-50 -20 -19 -19 -20 -33 -20 -202 0 -101 4 -188 8 -194 20 -30 55 -34 309 -34
247 0 260 1 281 20 21 20 22 28 22 205 0 172 -1 186 -20 205 -11 11 -33 20
-50 20 l-30 0 0 73 c0 49 -6 85 -19 112 -49 106 -173 154 -276 106z m183 -57
c47 -36 72 -95 72 -171 l0 -63 -170 0 -170 0 0 63 c1 98 42 169 115 195 45 17
113 6 153 -24z m170 -456 l-3 -173 -265 0 -265 0 -3 173 -2 172 270 0 270 0
-2 -172z"/>
<path d="M766 904 c-20 -19 -21 -58 -2 -74 8 -6 16 -28 18 -48 4 -49 32 -51
36 -3 2 19 10 44 18 55 8 11 14 28 14 38 0 22 -27 48 -50 48 -10 0 -26 -7 -34
-16z"/>
<path d="M140 855 c0 -41 47 -172 91 -255 108 -200 299 -383 512 -486 l58 -29
63 33 c189 98 367 257 465 416 89 144 153 341 111 341 -9 0 -22 -26 -36 -72
-82 -270 -296 -518 -557 -644 l-47 -23 -48 23 c-26 13 -83 47 -127 76 -205
135 -351 325 -426 555 -17 54 -33 86 -43 88 -11 3 -16 -4 -16 -23z"/>
</g>
</svg>
