<?xml version="1.0" standalone="no"?>
<!DOCTYPE svg PUBLIC "-//W3C//DTD SVG 20010904//EN"
 "http://www.w3.org/TR/2001/REC-SVG-20010904/DTD/svg10.dtd">
<svg version="1.0" xmlns="http://www.w3.org/2000/svg"
 width="166.000000pt" height="148.000000pt" viewBox="0 0 166.000000 148.000000"
 preserveAspectRatio="xMidYMid meet">

<g transform="translate(0.000000,148.000000) scale(0.100000,-0.100000)"
fill="#000000" stroke="none">
<path d="M750 1394 c-195 -33 -341 -113 -445 -242 -104 -129 -150 -274 -142
-442 9 -186 65 -318 187 -441 127 -128 279 -189 470 -189 327 0 579 204 644
522 32 154 12 302 -59 437 -111 212 -314 341 -554 355 -42 3 -87 3 -101 0z
m238 -70 c154 -40 309 -167 376 -307 76 -157 87 -350 29 -499 -112 -284 -404
-445 -698 -383 -181 38 -347 166 -424 328 -49 103 -64 167 -63 273 3 361 294
633 651 607 41 -3 99 -11 129 -19z"/>
<path d="M743 1239 c-179 -31 -337 -162 -403 -336 -28 -72 -37 -193 -20 -272
13 -65 75 -188 103 -205 14 -9 67 39 362 334 191 191 345 353 345 362 0 10
-20 31 -47 48 -92 58 -236 87 -340 69z m153 -50 c58 -10 174 -56 174 -68 0 -3
-143 -149 -318 -324 l-318 -318 -21 38 c-53 95 -68 238 -37 344 48 162 183
288 348 324 77 17 99 17 172 4z"/>
<path d="M846 701 c-388 -388 -366 -357 -279 -408 111 -65 278 -83 406 -43
153 47 278 174 333 340 27 80 25 236 -4 310 -28 70 -78 150 -94 150 -7 0 -170
-157 -362 -349z m421 139 c49 -207 -59 -431 -252 -521 -82 -39 -185 -54 -267
-39 -61 11 -178 56 -178 69 0 3 143 149 317 323 l318 318 24 -48 c13 -26 30
-72 38 -102z"/>
</g>
</svg>
