<?xml version="1.0" standalone="no"?>
<!DOCTYPE svg PUBLIC "-//W3C//DTD SVG 20010904//EN"
 "http://www.w3.org/TR/2001/REC-SVG-20010904/DTD/svg10.dtd">
<svg version="1.0" xmlns="http://www.w3.org/2000/svg"
 width="1080.000000pt" height="1080.000000pt" viewBox="0 0 1080.000000 1080.000000"
 preserveAspectRatio="xMidYMid meet">

<g transform="translate(0.000000,1080.000000) scale(0.100000,-0.100000)"
fill="#000000" stroke="none">
<path d="M3442 7636 c-141 -53 -240 -153 -290 -294 -15 -43 -17 -197 -20
-1887 -2 -1248 1 -1866 8 -1920 21 -164 114 -294 260 -364 l75 -36 1905 -3
c1895 -2 1905 -2 1966 18 142 48 251 155 302 298 15 43 17 197 20 1887 2 1248
-1 1866 -8 1920 -21 164 -114 294 -260 364 l-75 36 -1910 2 -1910 2 -63 -23z
m3280 -939 c90 -43 169 -123 213 -213 23 -49 29 -76 33 -159 5 -115 -15 -193
-71 -274 -66 -96 -1431 -1798 -1471 -1833 -134 -119 -330 -141 -497 -54 -70
36 -1012 749 -1055 799 -213 244 -92 640 221 721 101 27 214 15 314 -31 20
-10 172 -120 339 -246 167 -125 307 -227 312 -225 5 2 254 311 555 688 300
377 574 712 608 745 60 58 127 99 192 116 17 5 75 7 130 5 92 -2 107 -6 177
-39z"/>
</g>
</svg>
