<?xml version="1.0" standalone="no"?>
<!DOCTYPE svg PUBLIC "-//W3C//DTD SVG 20010904//EN"
 "http://www.w3.org/TR/2001/REC-SVG-20010904/DTD/svg10.dtd">
<svg version="1.0" xmlns="http://www.w3.org/2000/svg"
 width="1080.000000pt" height="1080.000000pt" viewBox="0 0 1080.000000 1080.000000"
 preserveAspectRatio="xMidYMid meet">

<g transform="translate(0.000000,1080.000000) scale(0.100000,-0.100000)"
fill="#000000" stroke="none">
<path d="M7193 8605 c-105 -29 -130 -50 -473 -391 l-335 -334 760 -760 760
-761 321 323 c191 193 332 343 349 372 81 139 85 298 10 446 -39 79 -984 1025
-1062 1064 -109 55 -226 69 -330 41z m600 -834 c346 -347 457 -464 457 -482 0
-18 -46 -71 -175 -199 l-175 -175 -483 483 -482 482 176 175 c130 130 181 175
200 175 19 0 126 -102 482 -459z"/>
<path d="M4612 6094 l-1539 -1546 -448 -1051 c-247 -579 -453 -1073 -459
-1099 -26 -122 82 -240 206 -226 45 5 2091 786 2143 818 17 10 732 724 1589
1585 l1559 1567 -136 136 -137 137 -1420 -1420 -1420 -1420 -167 167 -166 167
1416 1423 1416 1423 -137 138 -137 138 -1420 -1421 -1419 -1421 -168 168 -168
168 1122 1125 c618 619 1256 1259 1418 1422 l295 298 -135 135 c-74 74 -138
135 -142 135 -3 0 -699 -696 -1546 -1546z m-352 -2784 c0 -5 -1068 -416 -1105
-426 -15 -4 -49 24 -143 119 l-124 124 234 547 233 546 452 -452 c249 -249
453 -455 453 -458z"/>
</g>
</svg>
