<?xml version="1.0" standalone="no"?>
<!DOCTYPE svg PUBLIC "-//W3C//DTD SVG 20010904//EN"
 "http://www.w3.org/TR/2001/REC-SVG-20010904/DTD/svg10.dtd">
<svg version="1.0" xmlns="http://www.w3.org/2000/svg"
 width="1080.000000pt" height="1080.000000pt" viewBox="0 0 1080.000000 1080.000000"
 preserveAspectRatio="xMidYMid meet">

<g transform="translate(0.000000,1080.000000) scale(0.100000,-0.100000)"
fill="#000000" stroke="none">
<path d="M4275 7436 c-152 -35 -272 -102 -381 -210 -148 -148 -214 -297 -221
-501 -9 -239 59 -416 222 -580 162 -162 344 -233 570 -222 372 18 666 281 725
650 23 143 -1 296 -69 442 -93 198 -255 339 -466 405 -89 28 -290 37 -380 16z"/>
<path d="M6215 6845 c-147 -32 -282 -110 -380 -218 -70 -76 -140 -215 -161
-317 -23 -107 -14 -250 20 -358 21 -65 32 -85 51 -92 130 -49 1095 -68 1212
-23 22 9 52 76 74 170 63 263 -48 563 -265 718 -163 116 -368 161 -551 120z"/>
<path d="M4270 5729 c-769 -25 -1051 -187 -1215 -694 -97 -301 -240 -976 -350
-1652 l-7 -43 340 0 340 0 4 23 c53 261 214 1005 217 1001 4 -4 59 -914 61
-996 l0 -28 798 0 798 0 60 723 59 722 105 7 c58 4 267 17 465 28 747 43 1041
85 1315 187 280 104 386 195 384 328 -1 93 -28 161 -89 221 -77 77 -157 97
-300 74 -145 -23 -437 -51 -639 -60 -370 -19 -673 3 -1214 85 -125 19 -288 41
-362 49 -121 14 -194 19 -475 29 -44 2 -177 0 -295 -4z"/>
<path d="M7700 4944 c-253 -201 -844 -334 -1715 -384 -93 -5 -216 -10 -272
-10 l-102 0 -6 -52 c-3 -29 -23 -276 -45 -548 -22 -272 -42 -521 -46 -552 l-6
-58 815 0 814 0 6 68 c4 37 16 216 27 397 12 182 24 346 28 364 6 29 25 -36
116 -397 l109 -432 339 0 340 0 -6 28 c-3 15 -22 124 -41 242 -66 395 -139
764 -205 1037 -37 151 -86 333 -92 338 -2 1 -28 -17 -58 -41z"/>
</g>
</svg>
