<?xml version="1.0" standalone="no"?>
<!DOCTYPE svg PUBLIC "-//W3C//DTD SVG 20010904//EN"
 "http://www.w3.org/TR/2001/REC-SVG-20010904/DTD/svg10.dtd">
<svg version="1.0" xmlns="http://www.w3.org/2000/svg"
 width="500.000000pt" height="700.000000pt" viewBox="0 0 500.000000 700.000000"
 preserveAspectRatio="xMidYMid meet">

<g transform="translate(0.000000,700.000000) scale(0.100000,-0.100000)"
fill="#000000" stroke="none">
<path d="M42 6095 c63 -17 126 -49 165 -82 28 -24 34 -38 43 -99 8 -47 8 -79
1 -97 -10 -27 -76 -81 -113 -93 -18 -5 -18 -8 -4 -29 13 -20 13 -25 0 -44 -12
-16 -25 -21 -63 -21 -26 0 -53 6 -60 13 -11 10 -13 9 -9 -3 3 -11 22 -16 66
-18 58 -3 63 -1 79 25 10 16 44 52 75 81 l57 54 25 -39 c26 -40 44 -93 30 -93
-4 0 -18 10 -31 22 -30 28 -43 15 -14 -16 l23 -24 -36 -13 c-28 -10 -33 -15
-21 -21 9 -6 24 -3 40 8 l26 17 -13 -29 c-7 -15 -23 -39 -36 -53 l-22 -24 -33
31 c-18 18 -42 32 -52 31 -17 0 -17 -1 -4 -7 9 -4 34 -26 55 -49 l38 -41 33
43 c18 24 33 51 33 59 0 9 5 16 10 16 14 0 13 -22 -4 -60 -7 -18 -15 -27 -18
-20 -2 8 -17 -6 -34 -31 -27 -42 -30 -44 -54 -32 -14 7 -33 13 -42 13 -9 0
-20 9 -23 20 -5 17 -15 20 -67 20 -46 0 -64 -4 -74 -17 -14 -19 -20 -72 -7
-59 4 4 8 15 8 24 0 21 41 42 81 42 35 0 44 -13 37 -52 -3 -17 0 -28 9 -31 7
-2 1 -2 -14 0 -14 2 -29 -1 -33 -7 -4 -7 -1 -10 6 -9 8 1 27 -3 42 -9 36 -15
33 -16 57 10 16 17 23 19 32 10 10 -10 8 -17 -9 -33 -19 -19 -25 -20 -54 -10
-40 14 -83 14 -131 0 -35 -9 -38 -13 -38 -44 0 -40 13 -44 60 -20 17 9 30 13
30 9 0 -3 16 6 35 20 19 15 40 24 46 20 16 -10 -49 -49 -113 -68 -32 -9 -58
-21 -58 -27 0 -11 16 -8 100 23 52 19 125 70 162 113 58 67 108 210 108 308 0
78 -45 196 -101 266 -41 50 -65 68 -132 101 -45 22 -95 40 -112 39 -26 -1 -24
-2 17 -14z m293 -288 c28 -86 36 -166 10 -92 -8 22 -24 49 -37 60 -19 16 -23
30 -23 75 0 30 -4 64 -9 75 -4 11 1 7 13 -10 12 -16 32 -65 46 -108z m-95 -40
c0 -2 -20 -22 -44 -44 -30 -27 -46 -36 -50 -28 -3 8 15 26 42 43 52 33 52 33
52 29z"/>
<path d="M0 6081 c0 -5 15 -12 33 -15 48 -9 111 -53 132 -92 10 -19 18 -55 18
-80 0 -33 3 -41 10 -29 13 25 -1 99 -26 136 -29 43 -167 109 -167 80z"/>
<path d="M2320 6080 c-14 -4 11 -5 55 -3 44 3 97 1 117 -4 l37 -8 -23 -47
c-17 -35 -19 -45 -8 -39 8 5 20 23 26 42 6 18 16 34 23 36 7 3 4 -11 -7 -33
-18 -35 -19 -54 -1 -54 5 0 9 6 8 13 -1 33 5 46 27 61 21 13 28 14 50 2 23
-12 24 -15 11 -26 -17 -15 -20 -85 -5 -126 15 -40 20 -25 9 26 -17 75 6 113
54 89 26 -13 87 -70 87 -80 0 -4 -23 -19 -52 -34 -28 -15 -64 -36 -79 -48 -23
-16 -31 -18 -43 -8 -8 7 -18 21 -21 31 -4 11 -20 20 -45 24 -33 5 -43 13 -59
44 -23 43 -27 36 -7 -12 8 -20 23 -36 37 -40 15 -4 31 -22 44 -50 l21 -43 -33
-27 c-27 -23 -106 -131 -115 -158 -2 -4 -35 4 -74 18 l-70 25 17 52 c10 29 18
74 19 101 0 67 -11 52 -15 -21 -4 -60 -22 -113 -57 -171 -26 -42 -35 -35 -13
10 21 40 10 29 -37 -38 -24 -34 -35 -60 -33 -77 3 -28 -25 -54 -45 -42 -18 11
-62 107 -56 122 3 8 2 12 -3 9 -15 -9 -33 104 -26 160 6 54 61 178 74 170 4
-3 13 -1 21 4 18 11 56 -7 68 -34 8 -15 11 -16 11 -5 1 17 -34 59 -50 59 -6 0
-19 -5 -30 -10 -30 -16 -22 4 11 28 36 27 43 27 94 3 44 -20 116 -32 116 -19
0 4 -13 8 -29 8 -20 0 -30 6 -34 20 -3 13 -17 22 -36 26 -41 8 -39 19 7 44 24
14 28 18 12 14 -61 -17 -154 -91 -196 -157 -29 -45 -54 -135 -54 -195 0 -58
25 -143 63 -215 33 -63 122 -152 174 -173 l32 -14 -16 -37 c-22 -53 -13 -376
12 -443 11 -28 16 -70 15 -112 -1 -44 3 -70 12 -79 12 -10 11 -22 -5 -73 -10
-34 -28 -68 -38 -78 -10 -9 -54 -30 -96 -48 -43 -17 -95 -40 -116 -51 -21 -10
-54 -19 -74 -19 -34 0 -100 -26 -319 -125 -61 -28 -71 -36 -80 -66 -9 -32 -14
-36 -99 -62 -50 -16 -97 -32 -105 -36 -28 -15 -122 19 -182 65 -68 53 -74 62
-83 134 -3 30 -13 89 -20 132 -18 95 -20 198 -6 263 6 28 14 65 17 82 4 18 13
38 20 44 8 6 14 16 14 22 0 6 27 68 60 138 33 69 60 129 60 132 0 3 -9 3 -20
0 -14 -4 -20 0 -20 11 0 8 6 13 13 11 21 -8 33 7 92 125 31 63 62 121 68 129
10 11 6 12 -21 7 -17 -4 -32 -4 -31 1 1 16 18 48 18 36 1 -7 5 -13 11 -13 5 0
9 3 8 8 -2 8 7 45 33 131 21 69 25 131 9 131 -5 0 -10 -5 -10 -11 0 -8 -5 -8
-15 1 -13 10 -15 9 -15 -9 0 -19 -37 -141 -45 -149 -5 -5 -129 29 -141 39 -6
5 -24 -4 -47 -26 -33 -31 -37 -39 -16 -37 4 1 5 -8 2 -18 -3 -11 -11 -20 -17
-20 -9 0 -12 19 -10 65 2 68 26 124 99 225 42 60 51 75 37 66 -23 -14 -132
-188 -143 -229 -7 -23 -17 -46 -23 -52 -6 -5 -22 -35 -36 -65 -14 -30 -42 -80
-62 -112 -21 -32 -37 -68 -37 -81 0 -12 -5 -42 -11 -67 -11 -44 -11 -45 22
-73 18 -15 59 -42 92 -60 32 -17 53 -33 47 -35 -6 -2 -9 -8 -5 -13 3 -5 1 -9
-4 -9 -5 0 -17 -17 -26 -39 l-18 -38 -116 29 c-96 25 -123 28 -151 19 -34 -10
-51 -7 -51 8 0 5 35 44 78 87 76 76 139 160 128 171 -3 3 -19 -18 -36 -46 -17
-28 -59 -76 -93 -106 -55 -48 -63 -52 -67 -35 -3 11 -30 38 -60 61 -30 22 -69
54 -86 70 -36 35 -90 44 -250 44 -112 0 -136 -9 -167 -64 l-19 -32 42 4 c23 2
76 -2 117 -10 41 -8 80 -12 86 -10 20 7 -64 28 -135 34 -38 3 -68 9 -68 12 0
4 6 16 14 26 12 16 31 20 140 23 112 4 126 3 132 -13 4 -9 2 -20 -5 -24 -6 -4
-14 -32 -18 -61 -5 -39 -8 -49 -14 -35 -4 11 -5 -23 -3 -75 4 -85 2 -104 -24
-183 -39 -118 -45 -100 -28 78 7 67 6 69 -9 43 -8 -15 -21 -53 -29 -85 -15
-66 4 -61 -166 -48 -52 5 -105 12 -117 16 l-22 8 28 63 c16 35 36 88 46 118
10 30 22 58 27 61 18 12 -5 37 -40 43 -20 3 -52 8 -69 12 -18 4 -33 2 -33 -3
0 -5 27 -15 61 -22 59 -12 61 -13 54 -39 -8 -33 -46 -115 -41 -87 17 82 18 79
-20 103 -20 13 -38 21 -42 18 -3 -3 -2 -6 3 -6 4 0 2 -7 -5 -15 -11 -13 -9
-15 13 -15 44 0 52 -22 37 -98 -14 -76 -35 -132 -53 -145 -9 -7 -9 -10 1 -14
25 -10 32 -50 16 -88 -11 -28 -14 -59 -9 -125 3 -55 1 -91 -5 -95 -18 -11 -11
-27 9 -20 17 5 20 0 26 -42 3 -26 8 -63 11 -81 4 -25 2 -32 -7 -26 -9 5 -10 0
-5 -19 5 -23 4 -25 -19 -21 -25 4 -25 4 -25 -65 l0 -70 85 -51 c47 -27 89 -50
94 -50 17 0 60 -41 75 -72 19 -37 19 -38 6 -38 -6 0 -9 5 -8 12 6 25 -47 38
-149 37 -102 0 -103 -1 -103 -25 0 -23 3 -24 70 -24 38 0 80 5 93 11 19 8 30
8 48 -2 l24 -14 -25 -2 c-14 -2 -54 -8 -90 -13 -46 -8 -74 -8 -93 -1 -18 7
-27 7 -27 1 0 -17 52 -32 86 -26 l31 6 10 -215 c11 -224 18 -256 60 -269 11
-4 41 -54 73 -122 81 -172 101 -200 144 -208 32 -6 35 -10 30 -31 -10 -39 14
-129 45 -165 l28 -34 -19 -50 c-10 -28 -28 -72 -39 -97 -21 -45 -21 -47 -4
-83 23 -47 52 -66 133 -87 59 -15 66 -19 79 -51 13 -34 13 -37 -21 -89 -51
-80 -66 -96 -72 -81 -10 22 -225 149 -245 145 -3 -1 -28 5 -54 13 -53 15 -265
20 -265 5 0 -5 52 -10 115 -13 63 -2 117 -7 120 -10 3 -3 1 -16 -4 -29 -5 -13
-12 -35 -15 -49 -3 -14 -19 -33 -36 -42 -27 -15 -30 -22 -30 -67 0 -47 3 -52
37 -76 21 -14 43 -25 50 -25 7 0 21 -30 32 -67 21 -70 31 -88 93 -171 l36 -50
-81 -67 c-78 -65 -82 -67 -112 -56 -62 22 -109 5 -125 -45 -18 -54 23 -114 78
-114 23 0 32 -34 32 -126 l0 -63 -47 -6 c-82 -11 -143 -27 -143 -37 0 -6 11
-8 28 -4 62 14 205 37 214 34 6 -2 -46 -15 -116 -28 -69 -14 -126 -28 -126
-31 0 -16 34 -17 87 -2 85 22 122 30 181 37 43 6 52 4 46 -6 -5 -10 -4 -11 7
0 7 6 27 11 43 11 31 -2 31 -2 3 -6 -15 -2 -25 -8 -22 -13 3 -5 20 -7 38 -4
25 5 29 3 17 -6 -12 -9 -10 -10 10 -5 30 9 70 43 70 62 0 7 5 13 10 13 6 0 10
4 10 10 0 19 35 50 68 61 18 6 35 9 38 7 7 -8 -77 -98 -92 -98 -8 0 -14 -5
-14 -11 0 -5 -5 -7 -11 -4 -6 4 -13 -1 -15 -11 -7 -25 -75 -67 -154 -94 -47
-16 -97 -24 -182 -28 -109 -4 -151 -13 -136 -27 3 -4 39 -6 80 -7 174 0 303
40 416 130 24 19 44 33 46 31 7 -9 36 -104 36 -120 0 -10 -12 -26 -26 -36 -38
-28 -41 -81 -10 -183 14 -47 33 -128 41 -180 11 -62 22 -100 33 -109 30 -24
81 -41 122 -41 39 0 40 -1 40 -33 0 -21 -7 -36 -20 -45 -18 -11 -20 -23 -20
-100 0 -48 -7 -143 -15 -212 -20 -171 -20 -174 12 -189 48 -22 118 -25 153 -7
18 9 34 16 35 16 1 0 12 -27 24 -60 12 -32 26 -62 31 -65 16 -10 60 41 60 70
0 27 1 27 19 11 12 -11 21 -14 26 -7 11 18 25 12 25 -10 0 -34 19 -59 45 -59
13 0 27 -5 30 -10 3 -6 20 -10 37 -10 l30 0 -7 82 c-3 46 -11 120 -17 166 -5
45 -8 89 -5 97 3 7 2 15 -2 17 -4 2 -11 21 -14 44 l-7 41 58 6 c31 3 76 2 100
-2 23 -5 42 -4 42 0 0 5 6 9 14 9 8 0 18 5 21 11 5 7 -12 8 -52 5 -153 -15
-174 -15 -170 -3 2 7 19 13 38 15 19 1 62 7 95 12 34 6 69 8 77 4 25 -9 35
-51 52 -224 17 -173 32 -281 34 -242 1 26 17 28 42 6 21 -19 109 -29 340 -39
l156 -7 27 48 c14 27 53 102 85 166 l58 116 34 -29 c19 -16 48 -36 65 -44 17
-8 37 -21 44 -30 7 -8 19 -15 27 -15 8 0 11 -4 8 -10 -3 -5 0 -7 9 -4 12 5 13
9 3 25 -6 10 -17 19 -23 19 -22 0 -131 78 -131 94 0 9 2 16 4 16 6 0 134 -77
155 -93 35 -27 32 -60 -14 -153 -23 -49 -44 -92 -46 -96 -2 -5 148 -8 334 -8
l337 0 -7 137 c-6 116 -11 141 -27 159 -10 11 -19 34 -19 51 0 30 1 31 61 37
37 5 65 3 73 -3 15 -12 49 21 85 82 26 43 30 44 58 17 43 -39 150 -97 220
-119 40 -12 115 -24 167 -28 84 -5 107 -3 224 27 90 22 151 43 194 69 159 92
260 264 287 488 26 217 -25 368 -174 518 -83 84 -123 108 -250 152 -53 18 -94
24 -168 26 -61 1 -96 5 -94 12 26 69 38 120 34 138 -3 12 -17 67 -32 122 -38
141 -38 140 -25 164 11 21 12 21 52 -14 47 -40 74 -43 135 -16 43 20 83 78 83
121 0 21 -69 105 -78 95 -3 -3 11 -22 31 -41 42 -41 44 -54 20 -94 -14 -24
-96 -80 -117 -80 -18 0 0 29 42 67 47 44 32 43 -35 -3 -46 -31 -61 -30 -74 3
-8 22 -12 24 -19 13 -6 -8 -10 -10 -10 -4 0 17 36 54 52 54 25 0 119 106 111
126 -3 9 20 -4 53 -29 32 -25 81 -57 109 -72 27 -14 56 -32 65 -39 19 -17 85
-36 125 -36 26 0 100 39 115 61 3 4 41 3 85 -1 87 -9 92 -8 150 29 100 63 155
115 189 175 60 108 76 170 78 316 2 73 6 134 11 137 4 2 5 9 2 14 -5 8 111 15
153 10 17 -2 15 14 -3 29 -14 11 -12 15 15 31 29 18 43 53 17 43 -7 -2 -24 7
-37 21 -23 24 -23 25 -5 45 l19 21 18 -33 17 -33 -1 55 c0 35 -6 62 -16 73
-14 15 -14 17 1 17 31 0 17 17 -28 34 -53 21 -56 25 -48 57 l7 24 7 -25 c5
-14 7 25 6 88 l-2 113 25 -6 c30 -8 27 -5 39 -35 l10 -25 0 25 c0 14 -5 45
-13 69 -11 37 -19 47 -47 56 -27 10 -39 24 -66 77 -17 36 -46 77 -64 92 -28
24 -40 27 -86 24 -50 -3 -53 -2 -53 20 0 12 -6 38 -14 56 -14 35 -56 58 -129
71 -20 4 -37 10 -37 14 0 3 14 26 30 50 17 24 30 50 30 56 0 7 14 28 31 46 17
18 40 51 51 73 11 23 24 43 28 46 15 12 68 99 88 146 12 29 25 77 28 108 6 53
5 59 -21 86 -27 28 -91 58 -101 47 -3 -3 15 -14 39 -26 24 -12 52 -30 62 -41
18 -19 18 -23 -1 -96 -10 -42 -25 -84 -32 -93 -7 -9 -11 -11 -8 -5 3 6 7 21
10 35 2 13 7 32 11 42 4 9 3 17 -3 17 -6 0 -12 -6 -15 -12 -3 -10 -13 -11 -45
-2 -35 9 -40 9 -31 -2 6 -7 19 -16 30 -19 18 -6 17 -8 -3 -51 -12 -24 -26 -44
-31 -44 -4 0 -5 -4 -2 -10 10 -16 -13 -12 -57 11 -23 12 -53 23 -67 25 -98 14
-102 15 -95 38 4 11 13 30 20 41 14 22 178 167 195 173 5 2 9 8 9 14 0 14 -45
-17 -97 -65 -22 -21 -55 -49 -72 -61 -33 -25 -71 -69 -71 -83 0 -4 -12 -17
-27 -28 -16 -11 -52 -43 -81 -72 -49 -48 -53 -56 -47 -86 5 -24 4 -28 -5 -17
-9 13 -14 10 -36 -15 -15 -16 -49 -54 -76 -84 -51 -56 -76 -97 -72 -118 1 -7
2 -22 3 -33 0 -11 8 -20 17 -20 11 0 14 -5 10 -16 -3 -9 -6 -18 -6 -21 0 -17
-30 23 -31 41 0 11 -4 30 -8 40 -6 15 -18 -1 -59 -81 -29 -56 -67 -142 -86
-191 -19 -49 -46 -112 -60 -140 l-25 -50 -66 -1 c-69 0 -109 -18 -120 -52 -7
-20 -40 -26 -50 -9 -4 6 -16 8 -27 4 -13 -4 -24 -1 -29 7 -16 25 -9 28 26 13
19 -7 37 -14 40 -14 7 0 55 97 55 114 0 8 -37 33 -82 56 -103 53 -106 55 -125
101 -9 23 -23 39 -37 43 -18 4 -29 24 -54 103 -18 54 -32 105 -32 114 0 17 76
93 143 143 49 38 84 98 92 161 5 39 4 54 -8 63 -20 17 -45 5 -63 -30 -21 -41
-29 -29 -9 13 24 48 76 71 134 58 54 -12 65 -4 103 76 34 72 34 75 7 104 -20
21 -20 23 -3 42 9 10 23 19 30 19 12 0 42 87 113 325 35 116 47 248 32 369
-15 130 -36 199 -111 351 -96 197 -189 273 -430 352 -93 31 -121 36 -240 40
-112 4 -149 2 -217 -14 -46 -11 -83 -17 -83 -13 0 17 -79 84 -131 110 -81 41
-273 64 -349 40z m-75 -84 c19 -8 35 -20 35 -26 0 -7 -13 -4 -32 8 -18 11 -40
22 -48 25 -10 3 -10 6 -2 6 7 1 28 -6 47 -13z m953 -66 c34 -6 100 -22 145
-36 270 -86 388 -210 477 -504 29 -96 32 -118 34 -250 1 -138 -7 -251 -20
-271 -3 -5 -7 -22 -10 -37 -2 -15 -17 -65 -33 -112 -16 -47 -34 -104 -41 -127
-13 -44 -37 -63 -52 -41 -6 9 -7 6 -3 -8 4 -15 0 -24 -10 -28 -10 -3 -14 -2
-10 5 4 6 9 35 11 65 l4 55 -22 -21 c-12 -11 -32 -20 -45 -20 -13 0 -23 -6
-23 -12 0 -7 -18 -21 -40 -30 -22 -9 -40 -23 -40 -32 0 -8 -8 -17 -18 -20 -10
-4 -28 -20 -40 -36 -19 -26 -29 -30 -68 -30 -29 0 -43 4 -39 10 4 6 1 18 -6
26 -9 11 -9 18 -1 26 9 9 12 9 12 -2 0 -21 15 -1 17 23 2 12 7 63 12 112 6 50
12 102 15 117 3 15 1 30 -4 33 -16 10 -11 25 5 19 8 -4 15 -1 15 5 0 6 -7 11
-16 11 -10 0 -14 5 -10 16 3 9 2 12 -5 9 -6 -4 -7 3 -3 22 6 27 6 27 -9 8 -15
-18 -16 -18 -17 -2 0 9 -4 17 -9 17 -5 0 -12 9 -16 19 -7 23 -47 40 -53 22 -2
-6 -21 -11 -42 -11 -30 0 -44 -6 -64 -31 -14 -17 -26 -35 -26 -40 0 -5 -7 -9
-15 -9 -9 0 -15 -9 -15 -24 0 -14 -5 -28 -11 -31 -5 -4 -8 -12 -6 -18 4 -11
-36 -75 -56 -88 -5 -4 -8 -25 -5 -47 3 -35 0 -42 -17 -45 -17 -3 -14 -6 15
-20 41 -19 22 -22 -28 -4 -28 10 -36 10 -39 0 -3 -7 -9 -13 -14 -13 -5 0 -26
-11 -47 -24 -31 -19 -41 -35 -61 -92 -12 -38 -36 -90 -52 -115 -16 -25 -29
-55 -29 -66 0 -11 -30 -51 -67 -90 -65 -67 -69 -69 -96 -58 -15 6 -24 14 -21
18 4 3 -5 11 -20 16 -14 6 -26 16 -25 23 0 10 2 10 6 1 2 -7 16 -13 29 -13 13
0 24 -4 24 -10 0 -5 5 -10 10 -10 16 0 12 30 -5 36 -18 7 -20 24 -2 24 8 0 11
14 9 45 -2 25 -8 45 -13 45 -5 0 -9 8 -9 18 0 14 -2 15 -10 2 -7 -11 -10 -8
-9 15 0 44 24 127 33 118 5 -4 1 6 -8 24 -8 17 -17 60 -20 95 -2 34 -6 70 -9
78 -3 8 -16 60 -28 115 -25 105 -108 288 -141 309 -14 8 -23 7 -39 -3 l-22
-13 6 118 c11 228 91 456 200 572 158 166 404 242 655 202z m-617 -77 c7 -16
15 -31 17 -35 2 -5 -1 -8 -7 -8 -9 0 -41 50 -41 65 0 15 18 2 31 -22z m-238
-237 c31 -13 60 -26 64 -30 8 -8 -15 -54 -47 -91 -16 -18 -18 -24 -6 -15 18
14 19 13 12 -5 -5 -11 -11 -30 -13 -42 -3 -13 -9 -24 -14 -24 -5 -1 -15 -2
-21 -3 -8 -1 -13 -16 -13 -38 0 -20 -3 -39 -7 -43 -7 -7 -88 36 -88 48 0 4 7
7 16 7 8 0 12 5 9 10 -3 6 1 10 9 10 8 0 20 -8 25 -17 6 -10 11 -15 11 -10 0
4 -5 16 -12 26 -9 16 -16 17 -35 8 -13 -5 -23 -14 -23 -19 0 -16 -19 -8 -44
19 l-25 27 22 10 c16 9 21 20 22 52 0 35 33 109 34 78 1 -6 -6 -17 -14 -24
-16 -13 -20 -30 -7 -30 4 0 23 27 42 60 19 33 37 60 40 60 3 0 31 -11 63 -24z
m-1045 -128 c29 -11 52 -22 49 -24 -5 -6 -128 33 -147 46 -21 15 29 3 98 -22z
m-205 5 c-12 -4 -6 -40 9 -60 5 -7 7 -20 4 -30 -9 -28 3 -36 82 -61 83 -27 88
-37 44 -98 -15 -21 -33 -58 -40 -81 -12 -39 -16 -43 -45 -43 -18 0 -50 5 -72
10 -27 6 -43 6 -50 -2 -7 -8 -6 -9 3 -4 6 4 12 2 12 -3 0 -15 -23 -14 -44 2
-18 13 -18 16 8 59 14 25 26 52 26 62 0 15 4 14 42 -5 23 -12 48 -28 56 -35 7
-8 25 -14 40 -13 23 0 24 2 8 8 -19 7 -18 8 5 15 23 6 22 8 -21 31 -25 13 -66
29 -93 35 -40 10 -51 10 -72 -4 -42 -28 -46 -8 -10 43 31 42 71 121 89 174 3
11 11 15 18 11 8 -5 9 -9 1 -11z m72 -33 c-9 -18 -19 -30 -21 -27 -3 3 2 19
11 37 9 18 19 30 21 27 3 -3 -2 -19 -11 -37z m79 -1 c25 -16 55 -31 66 -32 24
-2 25 -10 6 -26 -11 -9 -27 -8 -71 4 -54 16 -57 16 -77 -2 -12 -10 -19 -13
-16 -8 2 6 13 29 24 52 10 24 20 43 21 43 1 0 22 -14 47 -31z m1096 -64 c0 -2
-7 -8 -15 -15 -12 -10 -15 -10 -15 2 0 8 7 15 15 15 8 0 15 -1 15 -2z m-980
-50 c0 -2 -17 -37 -38 -77 -21 -40 -44 -88 -50 -105 -12 -35 -32 -44 -32 -15
-1 26 93 202 107 202 7 0 13 -2 13 -5z m961 -56 c-6 -24 -11 -102 -11 -172 0
-143 9 -177 58 -217 24 -20 29 -31 25 -53 -5 -27 -18 -33 -39 -19 -6 4 -14 27
-17 51 -8 64 -25 74 -33 20 -7 -44 -7 -44 -16 -14 -5 17 -9 99 -9 184 -1 138
1 160 22 212 27 67 34 70 20 8z m-1291 -12 c0 -2 -15 -20 -34 -39 -27 -28 -36
-32 -41 -20 -3 8 -4 16 -3 17 2 1 16 11 32 23 26 20 46 28 46 19z m-31 -82
c-22 -32 -39 -45 -39 -28 0 12 52 74 57 69 3 -3 -5 -21 -18 -41z m-449 -17
c12 -13 24 -35 27 -50 3 -16 9 -28 14 -28 5 0 8 -3 7 -7 -1 -5 2 -33 6 -64 6
-44 4 -63 -8 -87 -9 -17 -15 -36 -14 -43 2 -6 -9 -20 -24 -31 -26 -20 -27 -20
-52 -2 -29 22 -32 36 -11 54 26 21 41 233 18 252 -7 6 -13 14 -13 19 0 17 29
9 50 -13z m397 -18 c-1 -22 -17 -28 -17 -7 0 12 9 27 16 27 2 0 2 -9 1 -20z
m-457 -50 c0 -5 -5 -10 -11 -10 -5 0 -7 5 -4 10 3 6 8 10 11 10 2 0 4 -4 4
-10z m190 -34 c7 -9 9 -16 4 -16 -12 0 -26 11 -44 34 -14 18 -14 19 6 8 11 -6
26 -18 34 -26z m517 -90 c-23 -46 -43 -83 -44 -82 -1 1 9 33 23 71 20 55 43
91 61 95 1 0 -17 -38 -40 -84z m-707 54 c0 -5 -4 -10 -10 -10 -5 0 -10 5 -10
10 0 6 5 10 10 10 6 0 10 -4 10 -10z m20 -46 c0 -7 -4 -16 -10 -19 -5 -3 -10
-15 -10 -25 0 -10 -5 -22 -11 -26 -7 -4 -9 1 -5 15 3 11 8 31 12 44 5 20 4 21
-9 4 -14 -16 -15 -16 -19 6 -4 20 -1 23 24 19 15 -2 28 -10 28 -18z m402 -60
c51 -15 97 -30 101 -34 5 -4 -20 0 -55 10 -35 10 -88 21 -118 25 -67 9 -100
24 -53 25 18 0 74 -12 125 -26z m-120 -16 c4 1 5 -4 2 -11 -8 -21 27 -45 90
-61 109 -29 123 -52 86 -134 l-19 -43 -38 20 c-38 19 -105 33 -173 36 -41 1
-41 8 -9 114 11 35 17 73 13 83 -5 18 -4 19 18 7 12 -7 26 -12 30 -11z m-136
-36 c-14 -14 -16 -14 -16 -1 0 20 23 44 29 28 2 -6 -4 -18 -13 -27z m-178 -20
c2 -7 -3 -12 -12 -12 -9 0 -16 7 -16 16 0 17 22 14 28 -4z m147 8 c3 -5 1 -10
-4 -10 -6 0 -11 5 -11 10 0 6 2 10 4 10 3 0 8 -4 11 -10z m1855 -20 c0 -11 -7
-20 -15 -20 -17 0 -18 2 -9 24 9 23 24 20 24 -4z m-1357 -30 c-5 -19 -23 -29
-23 -12 0 7 20 32 26 32 1 0 0 -9 -3 -20z m-588 -34 c28 7 53 13 57 14 9 0 -3
-73 -13 -80 -6 -4 -118 -5 -166 -1 -9 1 -8 13 4 46 l15 45 26 -19 c25 -17 32
-17 77 -5z m520 -33 c-23 -55 -65 -113 -83 -113 -9 0 -2 13 20 38 20 22 43 61
54 87 10 27 20 43 21 38 2 -6 -3 -28 -12 -50z m1445 55 c0 -2 7 -36 15 -77 19
-89 14 -116 -18 -98 -12 7 -25 16 -28 21 -4 5 -20 7 -36 4 -27 -4 -29 -2 -25
27 3 29 3 29 -13 10 -43 -55 -45 -56 -65 -45 -35 19 -18 121 25 152 9 7 145
12 145 6z m-2415 -22 c17 -12 17 -13 -8 -18 -21 -4 -27 -1 -27 13 0 22 10 24
35 5z m105 -58 l96 -21 -1 -77 0 -77 -40 18 c-22 9 -53 20 -70 23 -25 5 -69
15 -132 32 -16 4 -17 50 -2 93 13 38 21 38 149 9z m180 -50 c0 -24 -5 -50 -10
-58 -7 -11 -10 2 -10 43 0 31 4 57 10 57 6 0 10 -19 10 -42z m-57 -30 c-3 -24
-10 -47 -16 -53 -6 -7 -8 3 -3 30 3 22 6 46 6 53 0 6 4 12 9 12 5 0 7 -19 4
-42z m24 0 c-3 -8 -6 -5 -6 6 -1 11 2 17 5 13 3 -3 4 -12 1 -19z m2109 -55
c-7 -8 -76 28 -76 39 0 5 18 -1 41 -12 23 -12 38 -24 35 -27z m-2119 15 c-3
-8 -6 -5 -6 6 -1 11 2 17 5 13 3 -3 4 -12 1 -19z m-272 -8 c3 -5 2 -10 -4 -10
-5 0 -13 5 -16 10 -3 6 -2 10 4 10 5 0 13 -4 16 -10z m291 -33 c-3 -14 -20
-32 -38 -41 l-33 -17 33 6 c30 6 32 5 28 -17 -3 -12 -10 -52 -16 -88 -16 -94
-18 -98 -60 -129 -38 -27 -40 -28 -98 -16 -95 20 -99 24 -94 92 2 35 -2 81
-12 118 -32 114 -33 106 21 89 27 -8 82 -20 124 -26 67 -9 80 -8 102 7 15 9
29 26 33 37 8 27 18 14 10 -15z m2124 -16 c0 -11 -5 -23 -11 -27 -8 -4 -7 -9
2 -15 25 -15 39 -10 39 16 0 31 37 54 47 29 3 -9 2 -28 -3 -43 -18 -51 -104
-31 -104 24 0 12 3 25 7 28 12 13 23 7 23 -12z m1190 -51 c0 -5 -2 -10 -4 -10
-3 0 -8 5 -11 10 -3 6 -1 10 4 10 6 0 11 -4 11 -10z m-1222 -74 c3 -49 10 -68
47 -125 41 -61 44 -69 35 -100 -5 -20 -6 -40 0 -50 12 -23 107 -111 119 -111
6 0 39 24 73 53 63 54 103 102 136 167 49 95 114 205 125 212 15 10 46 3 124
-28 34 -13 70 -24 80 -24 11 0 27 -6 37 -13 16 -12 16 -20 1 -152 -9 -77 -18
-150 -21 -162 -6 -21 12 -163 21 -172 3 -2 27 6 54 19 39 18 55 33 76 72 16
29 41 57 58 67 38 20 107 80 107 93 0 5 -19 -7 -42 -26 -23 -20 -45 -36 -49
-36 -15 0 2 27 24 39 12 6 33 27 46 46 31 46 45 45 37 -2 -3 -21 -7 -49 -7
-63 0 -14 -3 -19 -5 -13 -8 18 -66 -27 -59 -45 4 -10 0 -12 -12 -8 -14 6 -15
5 -6 -5 10 -10 2 -23 -40 -61 -111 -103 -228 -198 -245 -198 -10 0 -24 -6 -31
-12 -11 -11 -12 -10 -6 0 4 8 -15 -3 -42 -22 -28 -20 -53 -33 -56 -30 -3 4
-51 7 -106 8 l-99 2 -74 76 c-54 57 -81 78 -103 80 -35 4 -66 37 -163 178 -36
52 -85 117 -108 143 -47 53 -67 113 -52 159 14 39 83 110 105 106 14 -3 19
-14 21 -62z m1249 -5 c-3 -20 -8 -45 -13 -55 -5 -14 -4 -17 5 -11 17 10 -4
-30 -30 -58 -17 -18 -17 -18 -4 20 18 50 18 72 0 79 -22 9 -18 39 8 57 30 20
40 11 34 -32z m-1396 -16 c-12 -20 -19 -40 -17 -44 3 -4 -4 -7 -14 -7 -10 0
-16 4 -14 8 3 4 -8 14 -23 23 -25 14 -26 16 -5 11 18 -3 22 -1 18 10 -3 8 -1
14 4 14 6 0 10 -6 11 -12 0 -10 2 -10 6 0 2 6 11 12 19 12 8 0 17 7 21 15 3 9
8 14 10 11 3 -3 -4 -21 -16 -41z m1066 -7 c-3 -7 -5 -2 -5 12 0 14 2 19 5 13
2 -7 2 -19 0 -25z m43 17 c-7 -8 -16 -15 -21 -15 -5 0 -9 7 -9 15 0 9 9 15 21
15 18 0 19 -2 9 -15z m-1215 -45 c-8 -13 8 -13 22 1 6 6 13 7 17 1 3 -5 -12
-16 -34 -25 -28 -11 -41 -12 -45 -3 -3 6 -3 1 -1 -11 2 -13 0 -23 -6 -23 -16
0 -4 45 12 45 8 1 14 6 13 13 -2 7 4 12 13 12 8 0 12 -4 9 -10z m1161 -37 c-3
-27 -10 -49 -15 -51 -4 -1 -6 -15 -4 -30 4 -21 2 -24 -6 -12 -9 12 -11 10 -11
-12 0 -16 -4 -28 -8 -28 -5 0 0 41 11 90 22 95 44 125 33 43z m-1361 3 c-4 16
-1 20 16 19 21 -1 42 -39 75 -129 12 -34 12 -42 0 -54 -12 -12 -16 -7 -31 32
-22 58 -31 55 -10 -4 17 -49 19 -64 6 -56 -10 7 -34 -18 -25 -27 3 -3 -2 -4
-12 -3 -10 2 -29 -3 -43 -10 -13 -7 -28 -11 -33 -8 -4 3 -8 1 -8 -5 0 -5 -10
-12 -22 -14 -13 -3 -3 -3 22 -2 l45 3 -45 -14 c-24 -8 -53 -11 -65 -8 -16 4
-17 3 -5 -5 12 -8 9 -12 -13 -20 -16 -6 -37 -11 -48 -11 -10 0 -19 -4 -19 -10
0 -5 -12 -10 -26 -10 -19 0 -25 4 -20 15 3 8 0 15 -7 15 -7 0 -31 37 -52 83
-22 45 -43 85 -48 88 -7 5 125 66 233 108 25 10 59 24 75 33 28 14 31 13 48
-6 l18 -21 -6 21z m1638 -27 c-4 -15 -9 -16 -30 -6 -22 10 -23 12 -7 17 30 11
41 7 37 -11z m-1529 -5 c9 -22 8 -24 -10 -24 -8 0 -12 5 -9 10 3 6 1 10 -5 10
-6 0 -8 5 -5 10 9 15 22 12 29 -6z m241 -74 c39 -43 37 -80 -5 -80 l-30 0 1
68 c0 37 3 60 6 52 3 -8 16 -26 28 -40z m2078 -27 c-8 -20 -23 -4 -23 25 0 24
1 25 14 7 8 -11 12 -25 9 -32z m-2187 -15 c-4 -23 -11 -45 -15 -48 -13 -8 -51
-88 -67 -139 -11 -37 -12 -58 -3 -104 7 -32 10 -60 7 -62 -22 -23 -273 -35
-266 -13 3 7 33 12 79 14 41 1 85 7 99 12 17 7 -6 8 -77 4 -101 -5 -103 -5
-103 17 0 12 4 20 9 16 5 -3 12 -1 16 5 3 5 0 10 -7 10 -19 0 -117 63 -115 73
2 9 274 10 317 1 24 -5 24 -5 5 8 -14 9 -57 12 -153 11 -73 -1 -131 1 -128 5
2 4 56 28 120 52 111 43 117 47 138 89 19 35 33 47 78 66 30 13 59 24 64 24 5
1 6 -18 2 -41z m2174 -15 c0 -6 31 -30 69 -54 62 -41 67 -47 55 -64 -7 -10
-11 -22 -8 -26 10 -16 -11 -9 -90 31 -110 56 -126 54 -161 -14 -18 -36 -20
-38 -23 -16 -2 13 2 29 10 34 7 6 12 22 10 35 -3 18 10 37 49 77 l52 53 19
-24 c10 -13 18 -27 18 -32z m108 23 c6 -4 21 -21 34 -38 20 -29 21 -31 2 -23
-10 4 -32 7 -47 6 -15 -1 -37 4 -48 10 -19 10 -19 12 -5 28 9 10 13 20 10 24
-8 7 40 2 54 -7z m-2871 -65 c24 -57 35 -86 33 -90 -1 -2 4 -7 11 -12 8 -4 11
-10 9 -13 -17 -17 -104 123 -93 150 7 20 23 7 40 -35z m3033 18 c-7 -11 -14
-18 -17 -15 -3 3 0 12 7 21 18 21 23 19 10 -6z m-3670 -34 c-29 -31 -22 -40
17 -20 40 20 119 30 135 17 43 -34 92 -52 145 -52 54 0 55 -1 40 -18 -10 -10
-17 -24 -17 -30 0 -7 -12 -12 -27 -12 -43 0 -51 -11 -59 -80 -10 -99 -12 -100
-102 -100 -43 0 -105 -7 -137 -16 -43 -11 -79 -14 -125 -9 -36 4 -73 7 -82 7
-10 -1 -18 3 -18 9 0 5 -13 9 -30 9 -41 0 -38 12 13 46 55 37 87 74 139 159
39 62 94 115 121 115 6 0 0 -11 -13 -25z m1418 2 c7 -5 10 -18 7 -28 -3 -9 -1
-20 5 -24 16 -10 12 -28 -5 -21 -13 4 -14 2 -5 -14 7 -12 8 -45 4 -86 -6 -53
-4 -65 5 -59 10 6 11 3 1 -14 -6 -12 -9 -35 -5 -50 3 -15 2 -46 -3 -69 -7 -30
-6 -42 3 -46 13 -5 27 -55 18 -69 -3 -5 -10 -1 -17 9 -19 25 -111 32 -135 10
-12 -11 -21 -14 -26 -7 -3 6 -11 108 -17 226 l-11 216 24 17 c13 9 32 19 43
22 27 8 99 0 114 -13z m859 -9 c-3 -8 -6 -5 -6 6 -1 11 2 17 5 13 3 -3 4 -12
1 -19z m-1683 -3 c3 -9 0 -15 -8 -15 -7 0 -13 7 -13 15 0 8 4 15 8 15 4 0 9
-7 13 -15z m-44 -20 c0 -11 -10 -15 -32 -14 -31 2 -31 2 -5 6 15 2 27 9 27 14
0 5 2 9 5 9 3 0 5 -7 5 -15z m2816 -16 c3 -5 -9 -6 -26 -3 -39 8 -39 -4 0 -18
19 -6 29 -16 28 -26 -4 -20 52 -53 59 -35 3 10 10 10 24 2 11 -5 25 -7 32 -3
6 4 -1 -7 -17 -24 -32 -35 -27 -36 -101 15 -24 16 -55 17 -55 1 0 -7 -9 -3
-21 9 -21 21 -21 21 -3 54 11 19 23 37 28 40 10 8 44 0 52 -12z m-138 -28 c-2
-27 29 -63 92 -108 10 -7 21 -24 24 -38 7 -26 -20 -135 -32 -135 -4 0 -43 10
-87 21 -44 11 -91 23 -105 26 -14 3 -31 10 -37 16 -20 15 -15 60 10 93 23 32
130 153 135 154 1 0 1 -13 0 -29z m-2003 11 c-5 -4 -12 -16 -13 -27 -6 -30
-12 -32 -12 -3 0 27 7 38 24 38 7 0 7 -3 1 -8z m-560 -52 c55 -23 121 -56 147
-73 41 -28 47 -37 53 -78 12 -86 -40 -149 -122 -149 -13 0 -32 4 -41 9 -24 12
-277 22 -266 11 5 -5 27 -13 49 -18 31 -7 36 -11 22 -17 -16 -7 -99 12 -152
35 -17 7 -17 9 -2 9 9 1 17 7 18 14 0 6 2 28 4 47 2 19 6 74 9 122 6 80 4 89
-13 100 -16 10 -17 15 -8 26 9 11 33 13 107 9 84 -4 107 -9 195 -47z m522 18
c-3 -8 -6 -5 -6 6 -1 11 2 17 5 13 3 -3 4 -12 1 -19z m1113 -27 c0 -3 -11 -11
-24 -17 -23 -11 -24 -10 -14 12 9 20 38 24 38 5z m-1930 -18 c0 -9 -14 -11
-47 -8 l-48 5 43 -11 c37 -9 42 -13 42 -38 0 -20 -5 -28 -16 -27 -18 1 -30
-16 -39 -56 -10 -49 -25 -30 -25 31 0 43 -4 60 -15 65 -21 8 -19 44 3 48 41 8
102 2 102 -9z m829 -20 c0 -25 -1 -25 -8 -8 -5 11 -7 23 -4 28 8 14 13 7 12
-20z m-34 8 c3 -5 1 -12 -5 -16 -5 -3 -10 1 -10 9 0 18 6 21 15 7z m33 -98 c1
-14 6 -31 11 -37 4 -6 11 -28 15 -48 6 -34 5 -38 -13 -38 -29 0 -37 23 -44
115 -6 77 -5 79 11 57 10 -13 19 -35 20 -49z m19 0 c-3 -10 -5 -4 -5 12 0 17
2 24 5 18 2 -7 2 -21 0 -30z m241 -75 l-2 -103 -5 75 c-3 41 -4 87 -2 103 7
55 11 24 9 -75z m1995 35 c-7 -3 -13 -9 -13 -15 0 -16 -63 -117 -77 -122 -12
-5 -6 24 7 34 4 3 24 31 45 63 20 32 40 55 43 51 4 -3 1 -9 -5 -11z m112 -34
c49 -23 59 -33 70 -69 8 -25 7 -25 -13 -6 -12 10 -19 23 -16 28 3 4 2 7 -3 6
-4 -2 -22 3 -39 10 -24 10 -43 11 -75 4 l-44 -10 58 -1 c57 -1 60 -3 119 -58
l60 -58 -7 -105 c-7 -97 -23 -179 -24 -124 -1 34 -59 76 -130 95 -65 17 -65
17 -111 -6 -25 -13 -61 -37 -79 -54 -19 -18 -36 -29 -39 -26 -3 2 -5 25 -4 50
0 47 36 122 112 235 21 30 45 67 54 83 20 33 49 35 111 6z m-3207 -21 c0 -30
-1 -31 -9 -10 -5 13 -7 28 -3 33 9 15 11 11 12 -23z m756 12 c8 28 3 35 59
-88 11 -24 30 -55 42 -70 l23 -27 -107 0 c-58 0 -125 -6 -148 -13 -36 -11 -43
-17 -43 -39 0 -21 -2 -23 -15 -13 -8 7 -12 17 -8 23 3 6 1 7 -5 3 -12 -7 -79
70 -74 86 1 5 -2 7 -6 4 -5 -3 -17 3 -27 14 -11 13 -14 20 -6 20 7 0 9 5 6 10
-3 6 1 10 9 10 9 0 30 19 47 42 l30 43 100 -3 c77 -3 99 -1 100 10 1 7 4 2 8
-12 l7 -25 8 25z m2022 -2 c10 -12 13 -18 5 -13 -7 4 -3 -7 10 -24 21 -28 67
-50 92 -43 4 1 7 -3 7 -9 0 -6 7 -9 15 -5 9 3 15 0 15 -9 0 -8 5 -15 10 -15
15 0 12 -27 -6 -63 -9 -18 -18 -34 -20 -36 -1 -2 -15 5 -31 15 -15 11 -61 35
-101 54 -71 34 -73 36 -68 68 4 27 41 102 50 102 2 0 11 -10 22 -22z m-2846
-45 c0 -14 -30 -11 -83 9 -25 10 -64 8 -161 -8 l-31 -5 30 18 c42 25 180 34
218 14 15 -9 27 -21 27 -28z m2020 27 c0 -11 -4 -20 -9 -20 -5 0 -7 9 -4 20 3
11 7 20 9 20 2 0 4 -9 4 -20z m733 -10 c-7 -28 -13 -25 -13 6 0 14 4 23 9 20
5 -3 7 -15 4 -26z m-1473 -46 c0 -36 -17 -64 -35 -58 -9 4 -16 0 -17 -7 -1 -8
-4 11 -7 41 -9 76 -6 83 30 64 20 -10 29 -22 29 -40z m759 -15 c-11 -7 -9 -9
6 -9 17 0 17 -2 5 -10 -8 -5 -21 -10 -29 -10 -11 0 -10 5 2 24 15 22 15 25 0
30 -13 5 -13 9 -2 22 12 14 14 13 22 -11 7 -20 6 -30 -4 -36z m-175 12 c5 -29
4 -32 -9 -21 -13 10 -19 9 -37 -6 -21 -19 -21 -19 -8 6 13 26 42 62 45 58 1
-2 5 -18 9 -37z m-1978 20 c-3 -4 7 -6 22 -4 21 4 24 2 12 -6 -10 -7 -11 -11
-3 -11 27 0 35 -40 24 -121 -15 -109 -90 -349 -91 -289 0 19 -40 56 -41 37 0
-6 -4 -2 -10 11 -5 13 -13 21 -18 18 -12 -8 3 54 39 159 17 50 31 108 32 130
1 47 13 85 28 85 6 0 9 -4 6 -9z m1777 2 c-7 -2 -21 -2 -30 0 -10 3 -4 5 12 5
17 0 24 -2 18 -5z m349 -28 c-3 -5 -7 -4 -10 3 -2 7 -11 12 -20 12 -14 0 -14
2 -3 9 16 10 42 -8 33 -24z m-2175 -12 c-3 -10 -5 -4 -5 12 0 17 2 24 5 18 2
-7 2 -21 0 -30z m213 22 c7 -9 11 -18 8 -20 -9 -10 -38 7 -38 21 0 18 14 18
30 -1z m1336 -40 c10 -8 27 -15 36 -15 33 0 27 -17 -12 -33 -36 -14 -42 -14
-55 -1 -11 11 -12 21 -5 33 5 10 6 21 3 25 -13 12 14 6 33 -9z m494 -38 c0 -4
-11 0 -25 9 -14 9 -25 20 -25 26 0 11 49 -23 50 -35z m-2054 -14 c-4 -27 -14
-70 -23 -98 -23 -73 -102 -235 -114 -235 -6 0 -9 3 -7 8 2 4 22 46 45 93 46
98 93 227 93 258 0 12 3 21 6 21 4 0 3 -21 0 -47z m2169 37 c-3 -5 -11 -10
-16 -10 -6 0 -7 5 -4 10 3 6 11 10 16 10 6 0 7 -4 4 -10z m1499 -5 c20 -8 36
-16 36 -18 0 -1 -12 -2 -27 -2 -16 -1 -43 -4 -60 -9 -29 -7 -33 -5 -33 12 0
36 25 41 84 17z m-2959 -43 c19 -22 46 -53 58 -68 21 -27 33 -39 107 -108 17
-16 30 -34 28 -41 -2 -7 -37 -49 -78 -92 -41 -44 -87 -94 -103 -112 l-27 -33
-28 28 c-15 16 -50 50 -77 75 -28 25 -83 84 -124 130 -41 46 -79 89 -85 94
-34 32 -116 135 -107 135 5 0 18 -10 28 -23 10 -13 36 -39 57 -58 l40 -34 -28
48 c-19 32 -26 55 -22 72 7 29 28 32 203 29 l122 -2 36 -40z m563 39 c9 -5 14
-35 15 -93 l2 -85 -45 4 c-68 7 -68 6 -60 57 4 27 3 43 -3 39 -5 -3 -6 4 -2
17 5 16 4 20 -4 16 -15 -10 -10 13 9 36 15 19 65 24 88 9z m975 2 c4 -3 2 -12
-4 -20 -10 -11 -5 -13 22 -11 28 2 33 0 31 -14 -2 -10 3 -18 10 -18 9 0 10 -2
1 -8 -8 -5 -7 -17 6 -43 10 -19 15 -41 13 -48 -3 -8 0 -11 7 -7 7 5 11 -3 11
-21 0 -16 5 -34 12 -41 7 -7 8 -12 2 -12 -5 0 -3 -4 5 -9 11 -7 7 -12 -16 -24
-16 -9 -35 -22 -41 -30 -9 -10 -24 -12 -64 -6 -29 4 -61 8 -70 8 -10 1 -22 10
-28 22 -12 21 -41 122 -44 149 0 8 -8 21 -16 28 -10 9 -10 11 -1 6 7 -3 16 -2
20 2 3 5 17 15 31 21 24 11 24 12 -12 12 -50 1 -48 15 5 30 23 7 53 19 67 27
28 15 44 17 53 7z m966 -30 c-28 -47 -29 -48 -29 -37 0 12 38 74 46 74 3 0 -5
-17 -17 -37z m-1729 3 c0 -3 -4 -8 -10 -11 -5 -3 -10 -1 -10 4 0 6 5 11 10 11
6 0 10 -2 10 -4z m240 -12 c0 -3 -4 -14 -10 -24 -8 -16 -5 -18 28 -22 20 -3
51 -1 67 3 83 20 85 20 78 2 -4 -9 -24 -45 -45 -80 -21 -34 -38 -67 -38 -72 0
-5 -7 -14 -15 -21 -12 -10 -15 -10 -15 3 0 8 -9 25 -19 38 l-20 24 15 -43 c14
-43 12 -62 -7 -62 -5 0 -9 15 -9 34 0 42 -29 66 -77 66 -17 0 -35 5 -38 10 -9
15 73 150 90 150 8 0 15 -3 15 -6z m180 -4 c0 -5 -2 -10 -4 -10 -3 0 -8 5 -11
10 -3 6 -1 10 4 10 6 0 11 -4 11 -10z m1785 -30 c73 -58 81 -73 94 -162 7 -45
14 -93 17 -105 2 -13 2 -23 0 -23 -3 0 -31 18 -62 40 -57 40 -96 49 -151 34
-25 -7 -31 -24 -9 -24 7 0 19 -6 25 -14 9 -10 8 -15 -3 -19 -9 -4 -16 1 -18
10 -2 12 -7 11 -30 -6 l-27 -21 11 32 c23 74 37 137 43 201 6 57 10 70 28 77
34 14 42 12 82 -20z m-1736 -72 c1 -27 -3 -38 -13 -38 -8 0 -23 -3 -33 -6 -15
-5 -16 -4 -2 5 10 6 16 26 17 53 1 23 5 51 9 63 6 18 8 17 14 -10 4 -16 7 -47
8 -67z m83 21 c21 -13 40 -32 43 -41 3 -10 8 -27 11 -39 5 -18 4 -19 -15 -10
-12 7 -21 19 -21 28 0 8 -20 33 -45 55 -28 24 -45 48 -45 61 1 21 1 21 17 -4
9 -14 33 -37 55 -50z m-1029 54 c-7 -2 -21 -2 -30 0 -10 3 -4 5 12 5 17 0 24
-2 18 -5z m-66 -9 c-3 -3 -12 -4 -19 -1 -8 3 -5 6 6 6 11 1 17 -2 13 -5z m443
2 c0 -2 -7 -7 -16 -10 -8 -3 -12 -2 -9 4 6 10 25 14 25 6z m-487 -84 c19 -2
27 1 27 12 0 22 27 27 131 22 91 -4 94 -5 92 -28 -5 -48 -3 -235 3 -280 4 -31
3 -48 -4 -48 -6 0 -37 26 -69 58 -32 31 -76 71 -98 87 -22 16 -43 34 -46 39
-4 4 -10 3 -13 -3 -4 -6 -2 -11 3 -11 6 0 11 -4 11 -10 0 -12 -27 -13 -34 -1
-3 5 3 20 14 34 11 14 20 30 20 35 0 6 -18 32 -40 57 -51 59 -62 79 -53 101 5
13 9 8 18 -22 8 -32 16 -40 38 -42z m1158 51 c13 -16 12 -17 -3 -4 -17 13 -22
21 -14 21 2 0 10 -8 17 -17z m380 -40 c38 -21 69 -42 69 -48 0 -6 -6 -20 -14
-31 -14 -19 -15 -19 -45 4 -17 12 -35 22 -40 22 -15 0 -51 50 -51 71 0 25 2
25 81 -18z m-442 -21 c7 -22 6 -29 -2 -26 -7 2 -12 18 -13 34 -1 36 3 34 15
-8z m1345 10 c3 -5 -1 -9 -9 -9 -8 0 -15 4 -15 9 0 4 4 8 9 8 6 0 12 -4 15 -8z
m-2044 -52 c11 -11 20 -28 20 -37 0 -15 -10 -18 -53 -19 -29 0 -61 -5 -71 -11
-13 -7 -3 -9 39 -5 48 4 59 1 76 -16 10 -12 21 -39 24 -60 l5 -39 -39 10 c-27
8 -49 7 -72 -1 l-34 -11 36 5 c49 8 109 -25 109 -58 0 -10 -18 -12 -79 -10
l-79 3 -6 52 c-11 100 -10 186 4 201 19 24 95 21 120 -4z m148 -10 c35 -11 77
-20 93 -20 16 0 29 -3 29 -7 0 -14 -15 -29 -32 -36 -9 -3 -30 -25 -45 -49 -15
-24 -45 -66 -65 -94 -21 -28 -38 -56 -38 -62 0 -7 -3 -12 -7 -12 -5 0 -9 17
-9 38 -1 20 0 29 3 20 4 -14 7 -15 17 -5 9 9 10 38 5 107 -4 52 -5 103 -4 112
3 12 -1 15 -12 11 -11 -4 -14 -2 -9 5 4 7 8 12 9 12 1 0 31 -9 65 -20z m254 2
c11 -11 -9 -75 -30 -99 -17 -20 -17 -20 -55 4 -34 21 -36 26 -26 46 33 62 41
69 73 63 17 -4 34 -10 38 -14z m1693 -6 c33 -13 53 -26 46 -30 -18 -11 14 -36
49 -39 29 -2 31 -4 26 -32 -4 -16 -16 -39 -27 -51 l-21 -23 -22 24 c-23 26
-109 75 -130 75 -12 0 -11 9 2 50 10 27 17 50 18 50 0 0 27 -11 59 -24z
m-1395 10 c0 -2 -7 -6 -15 -10 -8 -3 -15 -1 -15 4 0 6 7 10 15 10 8 0 15 -2
15 -4z m1211 -42 c-5 -16 -10 -25 -10 -20 -1 5 -8 3 -16 -4 -24 -20 -19 10 7
37 26 28 30 26 19 -13z m-1376 6 c3 -5 1 -10 -4 -10 -6 0 -11 5 -11 10 0 6 2
10 4 10 3 0 8 -4 11 -10z m275 0 c0 -5 -2 -10 -4 -10 -3 0 -8 5 -11 10 -3 6
-1 10 4 10 6 0 11 -4 11 -10z m-743 -32 c-3 -8 -6 -5 -6 6 -1 11 2 17 5 13 3
-3 4 -12 1 -19z m618 14 c-6 -4 -25 -21 -44 -37 -24 -22 -30 -24 -21 -9 7 12
25 28 39 37 27 17 42 22 26 9z m119 -21 c4 -5 -5 -4 -19 2 -14 7 -25 16 -25
20 0 9 36 -9 44 -22z m523 12 c4 -11 -45 -43 -67 -43 -18 0 -11 28 13 45 24
17 48 16 54 -2z m-3441 -50 c4 -13 11 -20 17 -16 6 3 7 1 3 -5 -4 -7 0 -21 8
-33 8 -12 12 -28 9 -37 -5 -11 -3 -13 7 -7 8 5 11 4 6 -3 -3 -6 -2 -13 4 -17
5 -3 10 -15 10 -25 0 -10 8 -26 17 -36 14 -13 14 -16 3 -13 -13 4 -129 211
-130 232 0 17 41 -20 46 -40z m1134 27 c0 -5 3 -10 8 -9 18 3 52 -15 52 -27 0
-8 5 -14 11 -14 6 0 44 -26 85 -57 41 -32 90 -70 109 -84 19 -15 31 -30 27
-34 -4 -4 2 -5 13 -3 11 2 27 -4 37 -15 10 -11 22 -16 29 -11 8 5 9 3 4 -6 -6
-10 -4 -12 9 -7 12 5 19 0 26 -16 5 -12 9 -16 9 -9 1 7 5 11 10 8 5 -4 12 0
14 6 3 7 6 9 6 3 0 -5 -7 -20 -17 -32 -14 -19 -23 -22 -55 -16 -34 5 -38 9
-34 30 5 29 -16 39 -192 89 -121 34 -243 73 -249 79 -2 1 10 33 27 69 23 50
35 66 50 66 12 0 21 -4 21 -10z m1531 -13 c-10 -9 -11 -8 -5 6 3 10 9 15 12
12 3 -3 0 -11 -7 -18z m30 0 c-10 -9 -11 -8 -5 6 3 10 9 15 12 12 3 -3 0 -11
-7 -18z m1389 2 c-7 -11 -14 -18 -17 -15 -3 3 0 12 7 21 18 21 23 19 10 -6z
m-1640 -29 c24 -17 30 -29 30 -59 0 -49 -26 -75 -36 -36 -7 28 -67 75 -96 75
-22 0 -23 9 -3 37 13 18 20 20 45 13 16 -5 43 -18 60 -30z m172 20 c-5 -20 38
-59 57 -52 14 5 13 3 -2 -12 -18 -19 -15 -54 6 -68 6 -4 -1 -10 -15 -13 -27
-7 -48 -46 -48 -90 0 -33 -9 -35 -35 -9 -28 28 -31 28 -110 10 -33 -8 -61 -13
-63 -11 -2 1 10 18 26 36 46 54 72 96 72 115 0 10 10 38 21 62 18 37 25 43 45
39 13 -2 24 0 24 5 0 5 6 8 13 5 6 -2 11 -10 9 -17z m558 10 c-8 -5 -22 -9
-30 -9 -10 0 -8 3 5 9 27 12 43 12 25 0z m870 -33 c15 4 38 -33 42 -67 2 -21
12 -42 25 -53 33 -27 28 -51 -17 -82 -22 -15 -40 -32 -40 -36 0 -15 -33 -10
-86 15 -36 17 -54 32 -63 55 -12 28 -11 36 19 93 18 35 42 76 53 92 l20 29 20
-24 c11 -13 23 -23 27 -22z m-2361 -79 c-23 -35 -43 -65 -45 -67 -8 -9 -29 27
-31 53 -1 22 10 39 44 73 44 44 45 45 59 24 14 -19 12 -26 -27 -83z m1476 77
c38 -8 73 -21 77 -28 5 -8 8 -7 8 6 0 9 -7 17 -15 17 -8 0 -15 4 -15 9 0 12
39 25 47 17 4 -3 1 -6 -6 -6 -8 0 -7 -5 3 -16 23 -22 20 -28 -23 -52 -34 -20
-40 -29 -55 -87 -19 -77 -20 -106 -3 -125 6 -7 -3 -1 -22 14 -23 18 -43 26
-58 23 -24 -4 -148 15 -198 32 -109 36 -110 37 -113 78 -2 21 1 56 6 78 l8 40
74 11 c95 14 195 10 285 -11z m-1277 -88 c34 -33 62 -65 62 -71 -1 -6 -23 -39
-51 -74 l-50 -63 -29 18 c-50 32 -140 114 -140 127 0 24 51 106 62 100 7 -5 8
-2 4 5 -5 7 0 21 10 32 16 18 19 18 43 2 14 -9 54 -43 89 -76z m1534 72 c13
-7 36 -7 74 1 61 13 84 9 84 -15 0 -9 11 -36 25 -60 23 -38 24 -43 8 -39 -12
3 -23 -5 -35 -25 -16 -29 -19 -30 -66 -24 -28 3 -64 1 -81 -5 -50 -18 -81 1
-81 48 0 34 -39 105 -40 73 0 -15 -36 -17 -45 -3 -3 6 1 13 10 16 9 4 15 14
14 23 -1 9 -1 20 0 25 1 11 106 -1 133 -15z m-2836 -56 c-9 -9 -13 -2 -20 37
l-7 35 17 -33 c9 -18 14 -35 10 -39z m166 20 c46 -39 48 -41 48 -103 0 -97
-42 -150 -121 -150 -46 0 -85 36 -100 94 -9 33 -8 51 5 93 10 29 22 53 29 53
7 0 23 9 37 20 34 27 63 25 102 -7z m1641 7 c15 -12 31 -37 36 -57 8 -30 7
-40 -11 -64 l-21 -29 -37 40 c-20 22 -43 40 -51 40 -36 1 -41 16 -17 53 27 43
61 48 101 17z m1934 -35 c-8 -29 -7 -42 6 -70 9 -19 20 -35 25 -35 5 0 30 -21
58 -46 42 -39 44 -43 16 -27 -52 29 -103 73 -113 101 -5 14 -12 23 -14 20 -13
-13 22 -67 65 -103 28 -22 50 -43 50 -47 0 -29 -149 -128 -194 -128 -15 0 -77
65 -96 99 -11 22 -8 26 90 107 53 44 78 76 91 114 13 38 18 50 24 50 2 0 -2
-16 -8 -35z m178 -18 c58 -56 65 -78 39 -115 l-16 -23 -46 41 c-67 59 -71 62
-82 55 -6 -4 -13 1 -16 9 -6 15 43 86 59 86 4 0 32 -24 62 -53z m-1786 22 c5
8 11 9 15 3 7 -11 -21 -25 -35 -16 -5 3 -9 11 -9 17 0 7 4 6 10 -3 8 -12 11
-13 19 -1z m531 1 c0 -5 18 -10 40 -10 29 0 40 -4 40 -15 0 -13 -12 -17 -36
-14 -12 1 -44 -56 -44 -78 0 -12 -4 -25 -10 -28 -5 -3 -10 -15 -10 -26 0 -17
-3 -18 -20 -9 -11 6 -20 19 -20 30 0 19 29 139 37 153 6 10 23 9 23 -3z
m-2327 -9 c13 -5 40 -12 61 -15 20 -3 62 -15 94 -25 44 -15 292 -93 370 -117
16 -5 15 -30 -3 -101 -22 -84 -36 -123 -43 -123 -4 1 -36 8 -72 16 -160 37
-179 41 -175 34 2 -4 22 -10 43 -14 22 -3 59 -15 83 -27 l44 -20 -47 5 c-39 5
-136 26 -373 84 l-40 10 50 1 c60 2 46 13 -37 31 l-58 13 6 41 c19 137 41 216
60 216 7 0 23 -4 37 -9z m3377 -1 c0 -5 -8 -10 -17 -10 -15 0 -16 2 -3 10 19
12 20 12 20 0z m-2690 -10 c0 -5 -5 -10 -11 -10 -5 0 -7 5 -4 10 3 6 8 10 11
10 2 0 4 -4 4 -10z m-770 -38 c0 -21 -2 -24 -10 -12 -13 20 -13 53 0 45 6 -3
10 -18 10 -33z m1469 7 c42 -15 75 -76 56 -102 -12 -17 -15 -16 -51 15 -20 18
-48 38 -61 43 -22 9 -23 11 -8 33 19 25 21 26 64 11z m1968 5 c-3 -3 -12 -4
-19 -1 -8 3 -5 6 6 6 11 1 17 -2 13 -5z m-1497 -26 c1 -53 248 -165 317 -144
10 3 41 -1 68 -8 28 -8 43 -15 35 -15 -8 -1 -28 -8 -43 -16 -15 -8 -80 -26
-145 -40 -64 -14 -132 -31 -149 -36 -18 -6 -52 -12 -77 -14 l-43 -4 -2 87 c-2
85 -23 160 -50 176 -20 13 -11 25 22 29 66 8 67 8 67 -15z m1600 2 c0 -5 -7
-10 -16 -10 -8 0 -12 5 -9 10 3 6 10 10 16 10 5 0 9 -4 9 -10z m-2239 -40 c21
-6 39 -15 39 -21 0 -6 4 -8 9 -4 6 3 34 -7 64 -22 49 -26 54 -32 66 -78 29
-109 41 -196 47 -341 7 -145 6 -153 -16 -198 -14 -27 -27 -42 -31 -35 -4 8
-11 5 -18 -7 -11 -16 -11 -15 -6 11 3 17 -24 -24 -60 -90 -37 -66 -102 -167
-144 -225 -74 -99 -77 -107 -74 -150 6 -73 0 -76 -112 -46 -101 27 -146 45
-113 46 10 0 35 -6 55 -14 21 -8 52 -17 69 -20 26 -4 33 -1 37 15 7 24 24 17
37 -15 8 -19 9 -18 9 9 1 42 -21 70 -58 73 -17 1 -42 7 -56 12 -36 14 -68 13
-59 -2 5 -7 2 -9 -7 -6 -10 4 -23 -5 -35 -23 -18 -28 -54 -43 -38 -16 4 6 22
35 39 62 l31 50 -8 175 c-10 187 -26 289 -22 130 l3 -95 -14 114 c-8 71 -19
117 -27 122 -11 7 -11 9 0 9 7 0 10 5 7 10 -4 6 -11 8 -16 5 -5 -3 -6 1 -3 9
3 9 1 16 -5 16 -6 0 -11 -7 -11 -15 0 -24 -20 -17 -21 8 -1 14 -4 9 -8 -13 -7
-35 -7 -35 -20 23 -12 56 -12 61 14 113 15 31 73 123 129 205 55 82 115 169
131 193 17 24 39 46 50 48 22 4 85 -6 146 -22z m2469 18 c0 -7 -10 -24 -21
-38 -11 -14 -18 -20 -15 -14 3 6 10 23 15 38 11 28 21 34 21 14z m-4075 -28
c-44 -48 -292 -190 -334 -190 -19 0 -41 58 -41 110 0 50 1 51 28 48 21 -2 27
-8 25 -25 -6 -55 122 -31 272 50 65 36 78 38 50 7z m2153 8 c21 -24 30 -49 36
-106 2 -23 0 -30 -7 -23 -5 5 -11 23 -12 38 -1 15 -3 35 -3 44 -1 9 -13 28
-27 43 -13 14 -21 26 -16 26 4 0 17 -10 29 -22z m-967 -37 c30 -27 69 -57 86
-68 l32 -19 -44 -63 c-24 -35 -46 -68 -47 -73 -6 -18 -92 27 -132 68 -31 32
-37 43 -32 68 4 17 15 39 26 51 11 11 25 35 31 53 6 18 14 32 18 32 4 0 32
-22 62 -49z m2939 39 c0 -5 -4 -10 -10 -10 -5 0 -10 5 -10 10 0 6 5 10 10 10
6 0 10 -4 10 -10z m-1741 -46 c14 -12 -19 -1 -35 12 -18 14 -18 14 6 3 14 -6
27 -13 29 -15z m-2103 -28 c-5 -23 -11 -33 -20 -30 -11 4 -10 12 2 39 19 42
27 38 18 -9z m2580 -12 c16 -4 38 0 60 12 31 17 36 17 58 4 49 -30 117 -102
143 -150 15 -28 33 -50 40 -50 7 0 16 0 21 0 4 -1 10 14 13 32 5 26 7 21 8
-24 0 -34 -3 -58 -9 -58 -18 0 -291 169 -275 171 24 2 -34 18 -67 18 -20 1
-48 5 -62 11 l-25 9 21 41 22 41 13 -26 c8 -13 25 -28 39 -31z m605 -2 c-18
-6 -78 25 -85 44 -4 9 13 5 47 -13 31 -15 46 -28 38 -31z m-1431 33 c0 -22
-61 -46 -111 -44 -79 4 -111 0 -107 -13 8 -22 191 -2 225 24 13 10 29 -37 35
-101 3 -32 -1 -37 -37 -58 -34 -19 -52 -23 -115 -21 l-74 3 -12 35 c-7 19 -19
56 -27 82 -14 46 -13 48 7 54 12 4 21 6 21 6 0 -1 26 9 57 21 68 28 138 34
138 12z m1993 -10 c-3 -9 -8 -14 -10 -11 -3 3 -2 9 2 15 9 16 15 13 8 -4z
m-1887 -30 c21 -33 8 -100 -20 -100 -25 0 -54 104 -34 117 22 13 37 9 54 -17z
m-1158 -64 c-56 -92 -78 -124 -78 -115 0 6 25 151 30 171 0 0 16 -4 35 -10
l35 -10 -22 -36z m3048 42 c7 -10 14 -27 14 -38 0 -11 7 -31 16 -43 9 -13 13
-26 10 -29 -3 -4 -6 -1 -6 6 0 8 -8 6 -25 -5 -32 -21 -139 -14 -163 10 -9 9
-14 17 -11 18 2 2 25 14 52 27 26 13 47 30 47 38 0 7 10 18 23 23 30 12 28 12
43 -7z m-493 -20 c2 -10 8 -27 13 -38 6 -16 3 -15 -20 7 -16 14 -25 31 -22 37
10 16 23 13 29 -6z m37 8 c0 -5 12 -23 26 -40 19 -23 22 -31 11 -31 -18 0 -57
46 -57 66 0 8 5 14 10 14 6 0 10 -4 10 -9z m-746 -18 l38 -5 -6 -46 c-3 -24
-6 -66 -6 -92 0 -46 -1 -48 -34 -54 -38 -7 -62 -30 -69 -66 -7 -32 2 183 9
234 5 33 4 38 -10 33 -9 -4 -16 -1 -16 4 0 7 10 9 28 4 15 -3 44 -9 66 -12z
m-1672 -126 l34 -22 -37 -72 c-31 -59 -40 -69 -49 -57 -7 7 -16 11 -21 9 -15
-10 -108 55 -129 90 l-21 35 27 50 c15 27 31 47 37 43 6 -3 7 -1 3 6 -4 6 -2
19 5 27 11 13 19 8 64 -36 29 -29 68 -61 87 -73z m2037 83 c0 -10 -3 -8 -9 5
-12 27 -12 43 0 25 5 -8 9 -22 9 -30z m-301 -74 c-8 -65 -8 -80 4 -93 13 -13
16 -5 22 63 4 43 9 81 12 85 4 7 42 -13 134 -70 12 -8 12 -17 -4 -68 -18 -55
-48 -110 -71 -125 -7 -5 -6 -8 1 -8 7 0 17 -35 24 -82 7 -46 21 -103 32 -128
19 -44 19 -44 -2 -60 -17 -13 -18 -18 -8 -29 9 -9 1 -8 -26 3 -22 9 -42 19
-44 21 -3 2 2 30 11 62 16 56 14 90 -8 148 -13 34 -47 65 -71 65 -13 0 -26 5
-29 10 -3 6 -2 10 3 10 4 0 6 69 4 153 -3 136 -2 150 12 137 13 -13 13 -27 4
-94z m-2840 80 c-10 -7 -15 -15 -12 -18 5 -6 -107 -78 -120 -78 -3 0 -6 5 -6
10 0 6 7 10 15 10 8 0 15 4 15 9 0 5 12 12 26 15 16 4 24 12 21 20 -4 10 1 12
16 8 12 -3 19 -1 15 3 -8 8 20 34 37 34 6 0 2 -6 -7 -13z m3742 -46 c-20 -13
-33 -13 -25 0 3 6 14 10 23 10 15 0 15 -2 2 -10z m-3938 -41 c45 -29 57 -47
41 -62 -3 -4 -25 4 -49 18 -23 14 -53 25 -66 25 l-23 0 25 -15 c14 -8 37 -19
53 -26 38 -16 49 -39 34 -78 -13 -36 -28 -39 -65 -12 -15 10 -38 22 -52 26
l-25 7 27 -21 c14 -11 30 -21 34 -21 21 0 51 -42 46 -65 -5 -27 -17 -33 -25
-12 -9 24 -73 47 -131 47 -31 0 -56 4 -56 10 0 5 13 38 29 72 16 35 36 80 45
101 15 35 18 37 62 37 36 0 59 -8 96 -31z m2237 -75 c1 -49 -1 -52 -40 -80
-34 -23 -54 -29 -108 -32 -36 -1 -71 1 -77 5 -7 5 -13 43 -15 88 l-4 79 85 1
c55 0 95 5 115 15 28 15 30 14 37 -5 3 -11 6 -43 7 -71z m423 21 c15 -14 32
-25 38 -25 5 0 10 -7 10 -15 0 -8 8 -15 18 -16 12 0 13 -2 3 -6 -19 -8 -272
38 -266 48 3 4 27 10 53 14 26 3 54 10 62 16 26 15 54 10 82 -16z m-1972 -17
c69 -12 145 -22 170 -24 45 -2 276 -76 338 -108 45 -23 54 -53 58 -190 4 -130
24 -270 54 -386 11 -41 22 -86 23 -100 3 -18 16 -31 48 -47 61 -30 193 -65
214 -56 13 4 16 3 11 -5 -5 -8 -2 -10 8 -6 9 3 16 10 16 16 0 5 5 6 12 2 6 -4
8 -3 5 3 -6 9 72 122 110 161 7 8 18 22 23 32 5 10 18 17 27 16 10 -2 12 -1 6
1 -14 5 -18 23 -5 23 4 0 12 10 17 23 12 28 38 29 47 2 6 -17 7 -16 5 5 -1 14
-8 24 -15 23 -16 -4 -15 1 9 50 38 74 50 88 64 77 9 -8 15 -8 20 0 4 6 1 9 -6
8 -6 -2 -14 3 -17 11 -3 9 0 11 7 6 8 -4 11 -2 10 6 -5 21 21 60 33 53 7 -4 8
-3 4 5 -11 17 3 51 21 51 12 0 13 -3 3 -14 -9 -11 -9 -19 0 -33 10 -16 10 -15
5 5 -6 20 -3 22 27 22 25 0 29 3 18 10 -11 7 -4 9 25 9 35 -1 37 -2 15 -9 -18
-6 -20 -8 -7 -9 10 -1 27 4 38 9 13 7 31 8 57 1 20 -6 78 -20 127 -32 50 -12
99 -26 110 -32 11 -6 29 -12 40 -13 11 -1 58 -14 105 -28 47 -14 110 -33 141
-41 39 -11 68 -27 94 -53 42 -42 105 -159 105 -197 0 -14 4 -25 9 -25 4 0 20
-44 35 -98 28 -104 31 -126 17 -103 -6 10 -11 5 -16 -19 -5 -25 -9 -29 -17
-19 -7 10 -8 3 -5 -22 6 -39 -9 -47 -35 -21 -18 18 -32 15 -48 -10 -8 -13 -32
-40 -53 -60 -21 -21 -34 -38 -29 -38 4 0 14 6 21 13 11 10 13 9 9 -2 -2 -8
-22 -20 -44 -26 -263 -81 -436 -357 -421 -675 2 -58 1 -96 -4 -85 -7 19 -8 18
-8 -4 -1 -20 -3 -22 -17 -10 -15 12 -16 10 -10 -21 3 -19 3 -30 0 -23 -3 7
-28 -11 -64 -47 -33 -33 -66 -60 -74 -60 -15 0 -31 39 -65 156 -23 80 -111
230 -225 387 -100 137 -159 187 -219 187 -13 0 -41 9 -62 21 -31 16 -51 19
-91 15 -67 -8 -190 5 -154 15 14 4 -44 7 -129 7 l-154 1 -87 -40 c-48 -21 -93
-39 -100 -39 -8 0 -11 -3 -7 -6 3 -4 21 -1 38 5 50 17 34 7 -106 -64 -71 -37
-145 -78 -164 -91 -20 -14 -50 -24 -69 -24 -19 0 -49 -7 -67 -16 -31 -14 -33
-19 -48 -107 -8 -51 -23 -117 -31 -147 -13 -43 -14 -61 -5 -82 14 -34 5 -74
-20 -88 -23 -12 -210 5 -225 20 -6 6 -18 10 -28 10 -10 0 -18 5 -18 10 0 6 -7
10 -15 10 -8 0 -17 12 -20 28 -11 51 -28 107 -42 140 -21 48 -28 102 -14 102
7 0 10 4 7 9 -3 5 3 20 14 34 17 21 20 38 17 94 -2 42 2 77 10 93 7 14 13 35
13 47 0 12 3 23 8 25 4 2 18 15 31 31 19 21 21 27 8 27 -8 0 -22 -7 -31 -15
-8 -8 -17 -15 -20 -15 -3 0 -3 34 1 76 3 50 2 79 -6 83 -12 8 -18 102 -7 119
4 7 2 10 -6 7 -8 -3 -13 3 -13 19 0 13 3 22 6 20 6 -4 4 265 -3 326 -6 47 -40
111 -100 188 l-50 64 28 41 c54 84 219 304 275 368 37 42 70 70 91 76 48 15
244 5 388 -19z m3133 15 c-13 -8 -23 -21 -23 -28 0 -7 -7 -16 -16 -19 -8 -3
-12 -10 -9 -16 4 -7 -3 -7 -20 0 -15 6 -39 10 -55 10 -55 0 -40 19 32 40 40
12 78 23 83 25 25 8 28 3 8 -12z m-2848 -24 c28 -17 41 -27 30 -23 -11 4 -35
9 -52 12 -18 2 -33 10 -33 17 0 7 -6 16 -12 18 -9 4 -8 6 2 6 8 0 38 -13 65
-30z m1354 -6 c12 -80 -5 -198 -32 -223 -23 -22 -37 -26 -37 -10 0 6 6 10 14
10 29 0 60 168 38 206 -11 18 -12 17 -13 -6 -1 -14 0 -35 1 -47 1 -13 -4 -49
-11 -80 l-13 -58 -7 40 c-12 63 -11 125 3 123 6 -2 14 6 16 17 8 40 37 59 41
28z m1670 14 c-19 -16 -145 -77 -158 -77 -10 0 -26 10 -37 22 -10 12 -14 18
-7 14 7 -3 28 0 48 8 19 8 41 13 48 10 7 -2 30 2 52 10 39 14 63 20 54 13z
m-1524 -31 c44 -9 156 -30 249 -47 93 -16 175 -36 182 -44 30 -29 25 -155 -8
-222 -21 -42 -79 -40 -183 7 -41 18 -185 54 -191 47 -2 -2 23 -12 55 -23 33
-10 58 -20 56 -22 -2 -2 -66 11 -143 29 -126 30 -139 35 -135 54 2 11 0 14 -3
6 -5 -11 -8 -11 -15 0 -7 11 -9 9 -9 -5 0 -11 -2 -17 -5 -14 -3 3 4 43 15 89
11 46 20 103 20 127 0 37 3 43 18 38 9 -3 53 -12 97 -20z m-1405 -16 c18 -12
2 -12 -25 0 -13 6 -15 9 -5 9 8 0 22 -4 30 -9z m1161 -149 c-31 -43 -78 -61
-159 -61 l-69 0 -2 63 -2 63 63 -3 c48 -3 76 2 118 19 l55 23 8 -37 c7 -31 4
-44 -12 -67z m727 14 c-3 -3 -9 2 -12 12 -6 14 -5 15 5 6 7 -7 10 -15 7 -18z
m46 -65 c-17 -60 -17 -66 -1 -110 9 -26 17 -50 17 -54 0 -3 -18 -6 -40 -6 -48
0 -67 23 -39 51 20 20 39 79 39 121 0 41 19 83 31 71 8 -8 5 -30 -7 -73z m-39
7 c-4 -47 -26 -117 -38 -117 -5 0 -6 8 -2 18 4 9 12 45 18 79 11 64 26 78 22
20z m-755 -62 c-7 -8 -17 -15 -23 -15 -6 0 -2 7 9 15 25 19 30 19 14 0z m24
-17 c-5 -8 0 -9 14 -6 12 4 20 2 16 -3 -3 -5 0 -9 7 -9 7 0 10 -2 7 -5 -9 -9
-59 14 -53 25 3 5 8 10 11 10 3 0 2 -5 -2 -12z m-2614 -5 c0 -23 -35 -93 -47
-93 -22 0 -25 25 -9 64 10 25 21 36 35 36 12 0 21 -3 21 -7z m93 -37 c33 -13
36 -17 26 -34 -9 -15 -9 -34 0 -83 19 -97 64 -182 137 -257 l65 -67 -57 80
c-31 44 -70 107 -85 140 -29 62 -57 171 -46 181 23 24 156 -82 217 -172 43
-64 94 -254 69 -254 -6 0 -19 5 -30 11 -11 6 -25 9 -32 6 -6 -2 7 -12 31 -22
23 -10 42 -23 42 -28 0 -8 -15 -6 -67 8 -10 3 0 -4 22 -15 37 -19 38 -20 10
-16 -30 4 -30 4 -30 -45 0 -44 -2 -48 -20 -43 -39 12 -95 54 -179 139 -65 65
-94 103 -121 159 -19 40 -35 81 -35 91 0 12 -5 15 -17 10 -39 -16 -52 -16 -84
1 -44 22 -49 30 -49 80 0 37 4 43 29 54 16 6 43 9 58 6 27 -6 30 -4 52 49 19
45 26 53 39 46 10 -5 34 -16 55 -25z m2697 -8 c22 -9 181 -38 205 -38 36 0 96
-21 89 -31 -3 -6 -17 -14 -30 -19 -19 -8 -58 2 -177 41 -83 28 -153 52 -155
54 -5 5 52 -1 68 -7z m-508 -90 c-51 -92 -65 -113 -166 -250 -54 -73 -95 -122
-91 -108 4 14 16 36 27 49 15 19 16 26 6 33 -9 6 -8 8 5 6 13 -2 26 10 42 42
13 25 30 52 37 60 18 20 90 130 105 160 4 8 17 26 30 40 13 14 23 29 24 35 0
5 3 5 6 -2 2 -7 -9 -36 -25 -65z m1328 -43 c42 -29 98 -64 125 -78 28 -14 59
-33 70 -42 19 -16 19 -16 -10 -10 -16 4 -67 32 -113 63 -46 31 -103 69 -125
85 -23 15 -44 33 -46 39 -5 14 4 8 99 -57z m-265 -15 c13 -27 14 -32 2 -20 -8
8 -18 26 -22 40 -9 32 -2 25 20 -20z m-1587 -114 c7 -94 6 -102 -10 -101 -24
2 -25 4 -32 55 -3 25 -10 67 -15 95 -8 44 -6 52 13 72 21 22 21 22 29 1 4 -11
11 -66 15 -122z m1652 32 c0 -16 -16 -7 -34 19 l-20 27 27 -20 c14 -10 27 -22
27 -26z m-3410 0 c0 -23 48 -117 82 -161 52 -67 160 -177 201 -203 35 -23 48
-44 27 -44 -5 0 -26 11 -47 25 -101 66 -167 123 -209 182 -47 66 -90 172 -80
198 7 18 26 20 26 3z m3965 6 c13 -5 8 -12 -22 -30 -51 -31 -58 -30 -26 6 14
17 27 30 29 30 1 0 10 -3 19 -6z m-3735 -394 c56 -28 80 -55 80 -87 0 -16 7
-37 15 -47 8 -11 15 -15 15 -9 0 6 7 10 15 9 19 -3 20 -5 13 -33 -6 -22 -7
-22 -39 -6 -40 20 -52 31 -63 58 -14 35 -17 0 -4 -41 12 -35 17 -39 51 -42 39
-3 45 -15 22 -46 -11 -14 -22 -17 -45 -12 -19 3 -29 2 -25 -4 3 -5 0 -7 -8 -4
-8 3 -28 -9 -46 -26 -25 -26 -37 -31 -59 -26 l-27 6 25 -15 25 -16 -29 4 c-15
3 -51 -2 -80 -9 -28 -8 -75 -14 -103 -14 l-53 0 0 48 c-1 26 -5 66 -9 90 -6
32 -5 42 5 42 24 0 46 47 42 90 -3 40 -2 42 82 113 l84 73 38 -38 c20 -20 56
-47 78 -58z m173 -21 c-10 -87 -19 -101 -53 -79 -17 10 -23 50 -7 50 5 0 7 -9
4 -19 -3 -13 1 -21 13 -24 13 -3 16 0 12 16 -4 15 -2 18 8 12 9 -6 11 1 8 29
-2 23 0 35 6 33 6 -2 10 -10 9 -18z m-29 -22 c7 -6 4 -7 -7 -3 -10 3 -23 6
-29 6 -6 0 -5 7 3 16 11 13 14 13 18 3 2 -8 9 -18 15 -22z m2987 2 c-5 -13
-10 -19 -10 -12 -1 15 10 45 15 40 3 -2 0 -15 -5 -28z m-3456 -9 c19 -22 7
-27 -24 -10 -13 6 -25 4 -41 -7 -18 -13 -21 -22 -17 -49 7 -43 -19 -36 -28 7
-15 66 65 109 110 59z m-47 -45 c-6 -14 -13 -23 -16 -21 -7 7 9 46 18 46 5 0
4 -11 -2 -25z m3482 -29 c-12 -33 -34 -30 -37 5 l-2 24 7 -25 c8 -24 8 -24 22
10 16 39 26 26 10 -14z m231 -76 c22 -6 79 -30 127 -53 66 -31 102 -56 149
-105 69 -70 123 -152 147 -224 19 -58 33 -228 19 -228 -6 0 -9 -18 -6 -44 6
-52 -5 -145 -16 -128 -4 7 -7 -3 -7 -21 0 -33 -79 -207 -93 -207 -4 0 -11 3
-15 8 -4 4 -22 12 -39 19 l-32 11 35 1 c37 1 82 21 48 21 -10 0 -18 4 -18 10
0 5 -7 7 -16 3 -9 -3 -20 0 -25 8 -8 12 -10 12 -18 -1 -9 -12 -13 -12 -37 0
-15 8 -34 26 -43 40 -24 38 -32 41 -91 35 -46 -6 -61 -13 -95 -45 -27 -26 -55
-42 -85 -49 -25 -6 -91 -26 -147 -46 -56 -19 -112 -35 -125 -35 -17 0 -33 16
-60 59 -21 32 -41 66 -44 75 -7 19 -24 21 -24 3 0 -7 18 -43 40 -80 37 -62 50
-94 33 -84 -5 2 -24 -15 -43 -39 -19 -23 -39 -43 -45 -43 -5 0 -21 8 -35 19
l-25 20 23 19 c12 11 22 28 22 40 0 17 -42 105 -58 121 -7 8 9 -42 26 -79 14
-30 14 -36 -1 -59 -8 -15 -20 -28 -26 -30 -12 -4 -111 94 -111 110 0 6 11 8
24 6 15 -3 27 2 35 14 14 22 14 28 1 28 -5 0 -10 -6 -10 -14 0 -19 -62 -15
-68 4 -3 8 -8 17 -12 20 -22 16 -40 75 -40 135 0 73 -1 73 78 54 59 -15 72
-25 72 -56 0 -14 13 -37 29 -54 53 -53 131 -31 131 36 0 18 -9 44 -20 58 -11
14 -20 30 -20 37 0 15 48 82 104 144 l44 50 33 -26 c51 -38 107 -63 174 -77
87 -19 102 -26 121 -63 10 -18 19 -28 21 -21 2 6 -3 23 -13 38 -14 21 -15 30
-5 52 7 14 8 30 4 34 -5 5 -38 15 -73 22 -74 16 -150 52 -222 105 -60 45 -119
143 -122 202 -1 44 -4 46 -32 25 -10 -8 -34 -15 -52 -15 l-32 0 6 43 c10 64
70 105 114 78 10 -7 20 0 39 27 29 43 76 85 105 93 38 11 255 10 297 -1z
m-364 -21 c-10 -6 -31 -28 -47 -50 -19 -27 -31 -36 -36 -28 -8 13 69 89 90 89
6 0 3 -5 -7 -11z m-87 -39 c-24 -22 -46 -40 -49 -40 -3 0 -18 -10 -32 -23 -20
-16 -28 -35 -33 -70 -5 -43 -4 -48 18 -57 16 -6 28 -24 40 -62 19 -57 66 -138
94 -160 9 -7 5 3 -9 22 -34 45 -64 105 -77 152 -9 34 -8 40 11 53 21 15 22 13
37 -33 34 -103 87 -167 195 -234 54 -33 149 -68 186 -68 24 0 30 -4 25 -16 -3
-9 -6 -20 -6 -26 0 -24 -188 35 -248 78 -26 19 -54 37 -62 41 -8 4 -18 11 -22
17 -5 6 -8 2 -8 -11 0 -12 -23 -48 -51 -80 -28 -32 -58 -72 -66 -89 -14 -29
-19 -31 -53 -27 -30 4 -42 1 -60 -17 -21 -21 -23 -21 -67 -6 -26 9 -56 16 -68
16 -20 0 -20 4 -18 108 2 59 8 147 14 195 6 49 9 91 6 93 -12 13 -29 -115 -37
-276 -5 -96 -9 -184 -10 -195 -1 -13 -7 -6 -17 20 -33 86 -14 325 33 418 28
54 106 168 111 163 3 -3 15 9 27 26 20 30 91 73 181 110 60 25 62 22 15 -22z
m-2787 -114 c9 5 9 4 0 -6 -13 -15 -37 -4 -26 13 5 8 8 8 11 -1 2 -7 9 -9 15
-6z m-196 -32 c-3 -3 -12 -4 -19 -1 -8 3 -5 6 6 6 11 1 17 -2 13 -5z m203 -14
c0 -5 -2 -10 -4 -10 -3 0 -8 5 -11 10 -3 6 -1 10 4 10 6 0 11 -4 11 -10z m57
-66 c-3 -3 -12 -4 -19 -1 -8 3 -5 6 6 6 11 1 17 -2 13 -5z m-46 -225 c16 -50
29 -101 29 -115 0 -14 6 -37 13 -52 19 -38 41 -121 34 -128 -9 -10 -78 6 -72
16 3 4 -1 11 -7 13 -8 3 -6 6 4 6 20 1 38 31 37 58 -1 13 -3 11 -10 -7 -6 -19
-7 -14 -4 20 3 28 2 40 -3 32 -7 -11 -10 -10 -15 3 -4 9 -3 13 3 10 6 -3 10 1
10 9 0 8 -7 19 -16 24 -8 5 -16 23 -16 40 -1 17 -9 40 -20 51 -10 11 -18 25
-18 31 0 6 -4 9 -9 5 -5 -3 -12 -1 -16 5 -4 6 -10 8 -15 5 -4 -3 -11 3 -14 12
-4 11 4 28 26 50 38 40 37 41 79 -88z m1032 104 c14 -8 7 -25 -9 -19 -10 4
-14 1 -12 -6 3 -8 38 -16 96 -22 66 -6 92 -13 92 -22 0 -12 -29 -167 -61 -331
-11 -56 -1 -52 -100 -39 -17 3 -41 14 -53 25 -12 12 -27 21 -33 21 -20 0 -23
34 -13 131 9 94 34 196 51 214 11 11 12 42 1 49 -5 3 -18 -3 -29 -13 -13 -13
-27 -57 -46 -142 -25 -121 -41 -271 -25 -246 9 14 10 1 2 -30 -5 -19 -8 -20
-20 -8 -9 9 -14 36 -14 77 0 65 34 321 45 339 18 28 94 41 128 22z m228 -72
c5 8 9 9 9 3 0 -7 11 -9 26 -6 15 3 25 1 21 -4 -3 -5 16 -10 41 -11 30 -1 41
2 31 8 -22 13 88 2 151 -16 3 -1 31 -7 63 -14 32 -7 89 -23 125 -36 64 -22 68
-25 80 -67 21 -69 10 -170 -28 -261 -18 -43 -34 -77 -36 -75 -1 2 1 21 6 43 4
22 11 56 13 75 3 19 8 55 12 80 4 25 5 43 2 40 -7 -7 -53 -145 -62 -187 -9
-46 -29 -54 -85 -33 -26 9 -61 16 -77 15 -29 -2 -30 -1 -26 34 2 20 15 84 28
143 25 107 33 212 16 222 -5 3 -11 -38 -13 -92 -3 -77 -11 -117 -38 -195 -18
-53 -36 -95 -38 -92 -3 3 -11 0 -19 -6 -10 -9 -13 -7 -13 7 0 17 -1 17 -16 -2
-8 -10 -13 -14 -10 -8 8 16 -18 22 -153 36 l-114 12 6 69 c15 171 68 370 85
317 3 -9 6 -9 13 1z m1459 -291 c7 -17 10 -33 6 -37 -3 -3 -6 1 -6 10 0 8 -12
30 -27 48 -23 27 -24 30 -7 21 12 -6 27 -25 34 -42z m-49 14 c23 -22 26 -29
14 -40 -7 -8 -15 -19 -17 -26 -7 -21 -58 19 -58 45 0 21 16 47 29 47 3 0 17
-12 32 -26z m-2694 -36 c-3 -8 -6 -5 -6 6 -1 11 2 17 5 13 3 -3 4 -12 1 -19z
m150 -20 c-3 -8 -6 -5 -6 6 -1 11 2 17 5 13 3 -3 4 -12 1 -19z m99 -58 c10 0
14 -15 14 -54 l0 -55 -29 9 c-49 14 -64 26 -67 56 -6 47 2 57 37 50 18 -3 38
-6 45 -6z m882 -6 c23 -5 32 -44 10 -44 -26 0 -137 44 -132 52 5 8 63 4 122
-8z m2255 -23 c12 -24 12 -32 1 -52 -7 -13 -13 -32 -14 -43 0 -15 3 -16 14 -7
11 9 16 9 21 1 4 -7 18 -10 32 -7 29 5 113 -11 113 -23 0 -9 -58 -60 -69 -60
-4 0 -11 4 -17 9 -19 18 -178 32 -235 20 -127 -26 -290 -89 -335 -130 -19 -18
-23 -18 -67 -3 -26 9 -47 19 -47 23 0 19 193 115 251 124 13 2 41 11 62 20 21
9 55 18 75 21 20 2 36 9 35 15 -2 6 -4 14 -5 19 -3 14 20 57 38 74 20 17 47
24 101 27 25 1 34 -5 46 -28z m-2493 15 c0 -3 -4 -8 -10 -11 -5 -3 -10 -1 -10
4 0 6 5 11 10 11 6 0 10 -2 10 -4z m571 -58 c13 -2 15 -7 9 -23 -4 -11 -14
-19 -21 -18 -39 6 -246 45 -261 49 -11 3 -18 15 -18 29 l0 23 138 -29 c75 -16
144 -30 153 -31z m-553 -23 c-12 -57 -8 -68 34 -88 90 -42 558 -118 558 -89 0
5 9 12 20 15 11 3 20 2 20 -1 -1 -20 -22 -35 -61 -43 -61 -11 -177 -11 -184 1
-3 6 -24 10 -45 10 -21 0 -40 5 -42 11 -2 7 -29 12 -65 13 -33 0 -56 4 -51 7
6 4 -21 12 -58 18 -147 25 -156 33 -148 114 6 63 14 88 23 83 5 -3 4 -26 -1
-51z m2561 -2 c3 -2 -9 -3 -27 -1 -18 1 -32 6 -32 10 0 8 49 0 59 -9z m-1936
-16 c-5 -8 -8 -7 -11 1 -2 7 -9 9 -14 6 -7 -4 -8 -2 -4 4 4 6 13 9 21 6 8 -4
12 -11 8 -17z m1635 12 c-2 -6 -64 -30 -138 -53 -161 -50 -221 -77 -254 -117
-14 -16 -27 -25 -31 -20 -9 16 91 94 137 107 24 6 95 30 158 53 125 44 133 46
128 30z m-1428 -44 c0 -2 -10 -10 -22 -16 -21 -11 -22 -11 -9 4 13 16 31 23
31 12z m1688 -74 c17 -1 32 -4 32 -8 0 -9 -140 -76 -190 -92 -102 -31 -187
-42 -277 -35 -51 4 -93 10 -93 14 0 18 36 34 81 35 49 1 69 9 54 23 -4 4 -10
1 -12 -5 -3 -7 -11 -13 -19 -13 -23 0 -8 17 25 28 25 9 28 8 24 -8 -4 -17 -1
-17 34 -8 22 5 40 16 40 23 0 7 -6 11 -14 8 -7 -3 -13 0 -13 6 0 12 69 5 80
-8 16 -20 40 -31 54 -25 21 8 21 24 -1 24 -10 0 -25 5 -33 11 -11 8 -4 9 29 5
30 -3 40 -1 30 5 -12 7 -12 9 0 9 8 0 12 2 9 5 -2 3 -29 1 -58 -5 -29 -6 -55
-8 -58 -6 -9 10 89 22 163 20 44 -1 95 -3 113 -3z m-203 -59 c-3 -3 -11 0 -18
7 -9 10 -8 11 6 5 10 -3 15 -9 12 -12z m-2368 -64 c-3 -7 -5 -2 -5 12 0 14 2
19 5 13 2 -7 2 -19 0 -25z m1449 12 c21 0 24 -5 24 -39 l0 -38 -59 -6 c-33 -4
-65 -8 -72 -9 -15 -4 -21 28 -13 71 l5 34 46 -7 c25 -3 56 -6 69 -6z m-1199
-226 c-3 -3 -12 -4 -19 -1 -8 3 -5 6 6 6 11 1 17 -2 13 -5z"/>
<path d="M3180 5730 c-23 -23 -24 -33 -10 -61 8 -15 17 -18 38 -13 15 4 33 11
40 17 19 15 14 55 -7 67 -28 14 -38 13 -61 -10z m58 -31 c4 -19 -27 -34 -41
-20 -14 14 0 43 20 39 10 -2 19 -10 21 -19z"/>
<path d="M3381 5693 c-44 -31 -17 -83 44 -83 36 0 55 42 31 69 -24 26 -51 31
-75 14z m62 -35 c6 -19 -3 -38 -18 -38 -17 0 -38 27 -30 40 9 14 42 13 48 -2z"/>
<path d="M3586 5608 c-22 -32 -20 -55 8 -73 37 -25 76 -5 76 38 0 18 -5 38
-12 45 -19 19 -55 14 -72 -10z m62 -32 c5 -24 -10 -38 -31 -30 -17 6 -23 35
-10 48 12 12 38 1 41 -18z"/>
<path d="M3086 5574 c-19 -18 -21 -65 -4 -82 13 -13 47 -16 72 -6 25 10 21 70
-6 88 -28 20 -43 20 -62 0z m48 -30 c19 -7 21 -40 4 -47 -29 -10 -53 25 -31
46 8 8 8 8 27 1z"/>
<path d="M3326 5487 c-20 -30 -10 -66 22 -74 48 -12 76 28 51 73 -16 31 -54
31 -73 1z m72 -35 c-4 -22 -46 -28 -54 -8 -4 9 -1 23 6 31 16 19 53 1 48 -23z"/>
<path d="M3563 5443 c-28 -19 -30 -63 -5 -86 23 -21 41 -21 70 -1 28 20 28 55
-1 82 -27 26 -34 26 -64 5z m52 -58 c0 -13 -8 -21 -22 -23 -17 -3 -23 2 -23
16 0 10 3 22 7 26 13 13 38 1 38 -19z"/>
<path d="M3013 5353 c-47 -32 -10 -106 44 -87 39 14 49 36 33 73 -14 35 -41
40 -77 14z m51 -19 c9 -3 16 -14 16 -24 0 -20 -33 -36 -50 -25 -14 9 -12 42 3
48 6 3 13 6 14 6 1 1 8 -2 17 -5z"/>
<path d="M3266 5298 c-35 -49 -9 -89 50 -79 27 4 43 14 53 33 14 24 14 28 -3
47 -26 29 -80 28 -100 -1z m79 -25 c16 -16 16 -17 -1 -30 -24 -17 -43 -17 -50
2 -15 39 21 59 51 28z"/>
<path d="M3506 5248 c-37 -33 -44 -80 -16 -108 12 -12 25 -18 29 -13 3 4 18
14 33 20 34 15 46 64 24 98 -20 31 -38 31 -70 3z m54 -44 c11 -12 10 -18 -3
-31 -21 -21 -47 -9 -47 22 0 29 29 35 50 9z"/>
<path d="M2985 5042 c-195 -48 -268 -83 -238 -113 13 -13 61 -5 263 42 94 22
112 34 104 67 -7 26 -37 27 -129 4z"/>
<path d="M3395 4951 c-3 -12 5 -35 23 -62 16 -24 41 -63 56 -86 21 -35 32 -43
55 -43 16 0 31 6 34 13 5 14 -17 70 -38 95 -8 9 -28 36 -45 60 -33 46 -74 58
-85 23z"/>
<path d="M2591 4344 c0 -11 3 -14 6 -6 3 7 2 16 -1 19 -3 4 -6 -2 -5 -13z"/>
<path d="M2646 4185 c5 -11 2 -13 -11 -9 -16 6 -16 5 1 -14 22 -26 25 -27 18
-7 -5 11 -2 14 12 8 18 -6 18 -6 0 15 -22 26 -28 28 -20 7z"/>
<path d="M2610 4116 c0 -2 7 -7 16 -10 8 -3 12 -2 9 4 -6 10 -25 14 -25 6z"/>
<path d="M2316 5455 c-9 -23 -8 -25 9 -25 17 0 19 9 6 28 -7 11 -10 10 -15 -3z"/>
<path d="M1047 5347 l-17 -32 20 24 c17 20 26 41 18 41 -2 0 -11 -15 -21 -33z"/>
<path d="M2343 4772 c-14 -23 -5 -81 9 -60 7 9 8 5 5 -14 -7 -43 11 -33 24 13
17 56 -11 103 -38 61z"/>
<path d="M65 4540 c-8 -13 24 -20 104 -25 85 -5 80 -1 -27 19 -40 7 -75 10
-77 6z"/>
<path d="M2413 4444 c-3 -9 -7 -35 -7 -58 -1 -33 7 -53 43 -104 59 -83 64 -72
7 14 -50 74 -49 72 -37 127 9 38 5 50 -6 21z"/>
<path d="M2980 4330 c0 -5 7 -10 15 -10 9 0 18 -7 21 -15 4 -8 10 -12 15 -9 5
3 9 2 8 -3 -3 -20 3 -40 21 -63 l19 -25 33 24 c18 14 37 30 41 38 4 7 18 13
29 13 36 0 13 10 -78 36 -97 26 -124 29 -124 14z"/>
<path d="M2775 3810 c27 -27 51 -50 52 -50 11 0 -21 42 -52 69 -55 48 -55 37
0 -19z"/>
<path d="M1993 3763 c9 -2 25 -2 35 0 9 3 1 5 -18 5 -19 0 -27 -2 -17 -5z"/>
<path d="M1695 3280 c3 -5 8 -10 11 -10 2 0 4 5 4 10 0 6 -5 10 -11 10 -5 0
-7 -4 -4 -10z"/>
<path d="M1720 3264 c0 -16 70 -77 78 -69 4 4 1 10 -6 12 -6 3 -10 9 -7 14 4
5 0 6 -8 3 -10 -4 -15 1 -14 13 1 11 -4 17 -12 15 -8 -2 -18 3 -22 10 -5 7 -9
8 -9 2z"/>
<path d="M4280 3205 c-35 -36 -62 -67 -59 -69 3 -3 34 24 69 59 35 35 62 67
59 69 -2 3 -33 -24 -69 -59z"/>
<path d="M3188 3263 c6 -2 18 -2 25 0 6 3 1 5 -13 5 -14 0 -19 -2 -12 -5z"/>
<path d="M3270 3240 c8 -5 20 -10 25 -10 6 0 3 5 -5 10 -8 5 -19 10 -25 10 -5
0 -3 -5 5 -10z"/>
<path d="M909 3197 c-28 -39 -30 -81 -6 -128 19 -38 27 -44 59 -47 21 -2 45 2
55 8 15 9 13 10 -13 6 -46 -7 -73 3 -89 35 -21 40 -19 92 6 123 11 14 17 26
12 26 -4 0 -15 -11 -24 -23z"/>
<path d="M1388 2893 c6 -2 18 -2 25 0 6 3 1 5 -13 5 -14 0 -19 -2 -12 -5z"/>
<path d="M3058 2883 c7 -3 16 -2 19 1 4 3 -2 6 -13 5 -11 0 -14 -3 -6 -6z"/>
<path d="M2287 2983 l-18 -38 28 32 c27 31 29 31 82 23 56 -10 85 -6 34 4
-107 20 -107 20 -126 -21z"/>
<path d="M2512 2957 c25 -10 27 -16 39 -111 6 -56 14 -96 16 -89 2 6 0 51 -5
99 -10 90 -24 115 -61 113 -9 -1 -4 -6 11 -12z"/>
<path d="M2182 2793 c-79 -141 -128 -243 -104 -218 14 14 165 305 159 305 -3
0 -28 -39 -55 -87z"/>
<path d="M2570 2590 c-3 -74 -4 -137 -3 -139 10 -16 13 24 11 140 l-3 134 -5
-135z"/>
<path d="M2800 3040 c-8 -5 -10 -10 -5 -10 6 0 17 5 25 10 8 5 11 10 5 10 -5
0 -17 -5 -25 -10z"/>
<path d="M2716 3031 c-4 -5 3 -7 14 -4 23 6 26 13 6 13 -8 0 -17 -4 -20 -9z"/>
<path d="M2918 2373 c7 -3 16 -2 19 1 4 3 -2 6 -13 5 -11 0 -14 -3 -6 -6z"/>
<path d="M2604 2246 c-3 -9 -11 -13 -16 -10 -6 4 -5 -3 1 -15 7 -11 14 -21 17
-21 3 0 2 5 -1 10 -4 6 -1 18 6 26 6 8 9 17 6 21 -4 3 -9 -2 -13 -11z"/>
<path d="M2470 2044 c0 -8 5 -12 10 -9 6 4 8 11 5 16 -9 14 -15 11 -15 -7z"/>
<path d="M2418 1963 c7 -3 16 -2 19 1 4 3 -2 6 -13 5 -11 0 -14 -3 -6 -6z"/>
<path d="M2016 1881 c15 -14 125 -49 179 -56 28 -4 58 -9 68 -12 9 -2 17 0 17
5 0 6 -28 13 -62 18 -52 6 -59 9 -38 15 24 8 23 8 -4 5 -16 -2 -59 5 -95 15
-75 22 -78 22 -65 10z"/>
<path d="M1771 1746 c-25 -30 34 -81 64 -56 22 18 18 36 -10 54 -30 20 -39 20
-54 2z m64 -36 c0 -22 -39 -19 -43 3 -3 15 1 18 20 15 12 -2 23 -10 23 -18z"/>
<path d="M2385 1668 c-25 -14 -35 -28 -34 -48 0 -11 2 -12 6 -2 4 10 9 7 17
-10 22 -45 86 -26 86 26 0 42 -34 57 -75 34z m60 -38 c9 -15 -14 -40 -36 -40
-22 0 -33 16 -25 35 6 17 52 20 61 5z"/>
<path d="M1293 1560 c-23 -9 -40 -47 -26 -60 22 -20 63 -20 83 0 26 26 25 35
-2 54 -25 18 -25 18 -55 6z m54 -36 c3 -9 0 -20 -8 -25 -18 -11 -21 -11 -39 1
-13 9 -12 12 4 25 25 19 35 19 43 -1z"/>
<path d="M2098 1433 c12 -2 32 -2 45 0 12 2 2 4 -23 4 -25 0 -35 -2 -22 -4z"/>
<path d="M2743 1348 c-13 -6 -23 -15 -23 -19 0 -17 44 -59 62 -59 26 0 43 41
29 69 -13 23 -34 26 -68 9z m57 -38 c0 -24 -26 -38 -42 -22 -16 16 -2 42 22
42 13 0 20 -7 20 -20z"/>
<path d="M362 1677 c-42 -43 -43 -45 -39 -103 l3 -59 2 61 c2 56 5 64 35 90
31 27 53 54 45 54 -2 0 -23 -20 -46 -43z"/>
<path d="M480 1706 c19 -8 42 -15 50 -15 26 -1 -10 16 -50 23 l-35 6 35 -14z"/>
<path d="M655 1629 c-4 -6 -5 -12 -2 -15 2 -3 7 2 10 11 7 17 1 20 -8 4z"/>
<path d="M426 1601 c-3 -5 15 -14 40 -21 25 -7 56 -22 69 -32 14 -11 25 -14
25 -8 0 6 -7 13 -15 16 -8 4 -13 10 -10 15 3 4 -14 13 -37 19 -24 6 -48 13
-55 15 -7 2 -15 0 -17 -4z"/>
<path d="M380 1563 l-25 -25 28 17 c15 10 27 21 27 26 0 12 -2 11 -30 -18z"/>
<path d="M566 1555 c4 -8 10 -15 15 -15 4 0 6 7 3 15 -4 8 -10 15 -15 15 -4 0
-6 -7 -3 -15z"/>
<path d="M470 1543 c-31 -21 -50 -40 -50 -48 0 -8 30 10 65 39 34 29 23 35
-15 9z"/>
<path d="M506 1524 c-11 -7 -18 -16 -15 -18 2 -2 13 2 23 10 11 7 18 16 15 18
-2 2 -13 -2 -23 -10z"/>
<path d="M360 1510 c8 -5 20 -10 25 -10 6 0 3 5 -5 10 -8 5 -19 10 -25 10 -5
0 -3 -5 5 -10z"/>
<path d="M473 1485 c0 -8 4 -15 9 -15 4 0 8 4 8 9 0 6 -4 12 -8 15 -5 3 -9 -1
-9 -9z"/>
<path d="M3728 1543 c7 -3 16 -2 19 1 4 3 -2 6 -13 5 -11 0 -14 -3 -6 -6z"/>
<path d="M3604 1515 c-78 -47 -99 -151 -48 -245 30 -55 63 -84 139 -122 76
-38 225 -70 225 -48 0 5 13 10 28 10 34 0 86 26 130 64 26 24 32 36 32 72 0
70 -35 164 -77 208 -40 41 -104 76 -138 75 -16 -1 -15 -2 5 -8 69 -21 132 -75
165 -141 10 -19 20 -65 23 -101 4 -62 3 -67 -24 -94 -48 -45 -106 -66 -192
-68 -67 -1 -86 3 -145 31 -127 59 -187 129 -187 219 0 83 41 138 120 159 39
11 41 13 15 13 -16 1 -48 -10 -71 -24z"/>
<path d="M4201 1302 c24 -89 23 -144 -1 -191 -27 -55 -116 -122 -157 -120 -11
0 -5 5 14 12 38 15 97 67 117 105 23 44 29 115 15 176 -7 31 -17 60 -22 63 -7
4 -8 -1 -3 -13 15 -36 18 -139 6 -184 -15 -55 -73 -114 -129 -131 -35 -11 -38
-14 -28 -31 17 -28 68 -17 127 28 92 70 115 155 76 286 -23 81 -36 80 -15 0z"/>
<path d="M4211 974 c-41 -29 -29 -32 17 -4 32 20 32 20 32 0 0 -11 -9 -43 -19
-70 -12 -30 -15 -50 -8 -47 14 4 50 114 43 132 -7 21 -25 18 -65 -11z"/>
<path d="M4003 923 l-9 -38 -62 -3 c-67 -3 -78 -22 -13 -22 62 0 100 10 94 26
-3 8 0 27 5 44 6 16 7 30 2 30 -4 0 -12 -17 -17 -37z"/>
<path d="M4154 938 c-17 -24 -44 -76 -44 -85 0 -4 14 14 31 41 17 26 28 50 26
52 -2 3 -8 -1 -13 -8z"/>
<path d="M3588 883 c7 -3 16 -2 19 1 4 3 -2 6 -13 5 -11 0 -14 -3 -6 -6z"/>
<path d="M3630 870 c8 -5 20 -10 25 -10 6 0 3 5 -5 10 -8 5 -19 10 -25 10 -5
0 -3 -5 5 -10z"/>
<path d="M4168 853 c6 -2 18 -2 25 0 6 3 1 5 -13 5 -14 0 -19 -2 -12 -5z"/>
<path d="M3150 739 c0 -12 39 -31 57 -27 9 2 1 9 -21 19 -20 9 -36 13 -36 8z"/>
<path d="M4218 743 c7 -3 16 -2 19 1 4 3 -2 6 -13 5 -11 0 -14 -3 -6 -6z"/>
<path d="M4137 722 c-38 -8 -3 -22 54 -22 40 0 59 4 59 13 0 12 -70 18 -113 9z"/>
<path d="M3500 714 c0 -6 7 -19 16 -30 14 -18 14 -18 3 6 -14 31 -19 36 -19
24z"/>
<path d="M3618 673 c6 -2 18 -2 25 0 6 3 1 5 -13 5 -14 0 -19 -2 -12 -5z"/>
<path d="M4153 669 c-16 -7 -15 -8 4 -8 12 -1 23 -6 25 -11 2 -6 8 -2 14 8 10
15 8 18 -7 18 -10 0 -26 -4 -36 -7z"/>
<path d="M3350 516 c0 -2 8 -10 18 -17 15 -13 16 -12 3 4 -13 16 -21 21 -21
13z"/>
<path d="M3193 1345 c0 -22 2 -30 4 -17 2 12 2 30 0 40 -3 9 -5 -1 -4 -23z"/>
<path d="M657 993 c-4 -3 -7 -11 -7 -17 0 -6 5 -5 12 2 6 6 9 14 7 17 -3 3 -9
2 -12 -2z"/>
<path d="M2431 884 c0 -11 3 -14 6 -6 3 7 2 16 -1 19 -3 4 -6 -2 -5 -13z"/>
<path d="M3538 467 c-7 -8 -20 -12 -28 -10 -10 3 -9 0 3 -7 9 -6 15 -16 11
-21 -3 -6 3 -5 14 2 11 7 18 19 14 27 -4 11 1 13 19 7 18 -5 21 -4 9 4 -20 14
-26 14 -42 -2z"/>
<path d="M1313 5841 c-24 -4 -46 -11 -50 -15 -5 -4 3 -5 17 -2 121 25 162 13
180 -55 15 -56 -22 -262 -56 -315 -9 -13 -14 -31 -12 -41 7 -31 45 70 69 180
31 147 27 198 -17 234 -30 24 -54 26 -131 14z"/>
<path d="M2213 5790 c0 -36 2 -50 4 -32 2 17 2 47 0 65 -2 17 -4 3 -4 -33z"/>
<path d="M120 5810 c-19 -11 -54 -19 -78 -20 -26 0 -41 -4 -37 -10 15 -25 115
-1 144 33 17 21 14 21 -29 -3z"/>
<path d="M1305 5730 c10 -16 85 -52 85 -41 0 11 -22 25 -65 41 -18 7 -24 7
-20 0z"/>
<path d="M2186 5690 c-21 -46 -34 -61 -76 -88 -41 -25 -35 -29 13 -6 35 17 92
95 84 116 -3 7 -12 -3 -21 -22z"/>
<path d="M33 5563 c15 -2 39 -2 55 0 15 2 2 4 -28 4 -30 0 -43 -2 -27 -4z"/>
<path d="M233 5475 c0 -8 4 -15 9 -15 4 0 8 4 8 9 0 6 -4 12 -8 15 -5 3 -9 -1
-9 -9z"/>
<path d="M4690 5422 c-70 -24 -167 -89 -213 -143 -42 -49 -82 -142 -98 -232
-29 -154 53 -331 198 -430 93 -64 250 -97 359 -77 38 7 64 17 64 25 0 9 -29
11 -122 7 -68 -2 -121 -2 -118 1 10 10 191 57 200 52 13 -8 40 6 40 21 0 8 -5
14 -11 14 -16 0 -142 -37 -207 -61 -57 -21 -99 -24 -122 -9 -20 12 -16 15 85
51 141 49 187 60 201 48 9 -7 12 -2 10 23 -3 36 12 68 31 68 7 0 13 7 13 15 0
12 -4 14 -19 5 -11 -5 -26 -18 -33 -28 -11 -16 -66 -34 -216 -72 -32 -8 -34
-6 -68 45 -30 44 -36 62 -38 116 -2 60 0 68 37 122 30 42 43 54 52 47 15 -12
137 -61 141 -57 2 2 -31 19 -74 39 -79 38 -84 42 -139 143 -18 33 -33 53 -33
44 0 -8 18 -46 41 -83 22 -37 38 -73 35 -79 -3 -7 -22 -34 -41 -61 -30 -41
-41 -49 -71 -51 -20 -1 -40 -8 -44 -15 -7 -11 -16 -11 -54 0 -26 7 -49 16 -51
21 -5 7 12 231 21 277 8 39 116 137 191 172 64 30 178 56 167 38 -3 -4 -17 -8
-32 -8 -26 0 -56 -16 -139 -71 -51 -35 -80 -119 -41 -119 7 0 7 4 0 13 -7 8
-5 23 5 49 16 41 38 54 60 37 16 -14 24 -9 26 19 0 11 5 18 10 15 4 -3 16 2
25 10 42 37 167 63 232 48 46 -10 60 -7 44 9 -6 6 -64 12 -129 15 -100 5 -129
2 -175 -13z m-16 -87 c-4 -8 -8 -15 -10 -15 -2 0 -4 7 -4 15 0 8 4 15 10 15 5
0 7 -7 4 -15z m-255 -250 c-4 -38 -8 -97 -8 -129 -1 -45 -4 -57 -12 -49 -17
17 -14 131 5 197 9 32 19 57 20 55 2 -2 0 -35 -5 -74z m68 -193 c23 -3 33 -10
37 -27 8 -32 33 -55 60 -55 17 0 28 -12 46 -50 13 -28 30 -56 37 -62 20 -16
16 -24 -24 -48 -30 -18 -41 -20 -61 -10 -23 10 -24 12 -6 24 17 13 16 16 -12
70 -18 34 -36 56 -46 56 -9 0 -20 4 -23 10 -10 15 -45 32 -45 21 0 -5 17 -18
39 -28 29 -13 44 -30 61 -67 18 -40 20 -50 9 -57 -20 -13 -109 85 -133 145
-21 55 -15 102 12 90 9 -4 31 -9 49 -12z m121 6 c7 -7 12 -19 12 -27 0 -12 -3
-11 -18 2 -25 23 -41 21 -52 -5 -9 -23 -9 -23 -9 3 -1 14 2 29 6 32 11 11 48
8 61 -5z m312 -178 c-8 -6 -24 -9 -35 -9 -15 0 -13 4 10 14 32 14 49 10 25 -5z
m-63 -16 c-3 -3 -12 -4 -19 -1 -8 3 -5 6 6 6 11 1 17 -2 13 -5z m0 -160 c-3
-3 -12 -4 -19 -1 -8 3 -5 6 6 6 11 1 17 -2 13 -5z"/>
<path d="M4650 4680 c0 -5 5 -10 11 -10 5 0 7 5 4 10 -3 6 -8 10 -11 10 -2 0
-4 -4 -4 -10z"/>
<path d="M4805 5376 c-53 -23 -78 -60 -77 -110 1 -101 48 -159 155 -191 58
-17 117 -20 117 -5 0 6 -24 10 -53 10 -63 0 -150 39 -180 81 -24 34 -33 110
-18 147 15 36 77 72 124 72 19 0 54 -7 77 -15 50 -18 50 -18 50 -5 0 27 -143
39 -195 16z"/>
<path d="M4625 5222 c6 -4 16 -19 24 -34 8 -15 27 -42 43 -60 25 -29 24 -26
-7 21 -19 29 -35 59 -35 67 0 8 -8 14 -17 14 -10 0 -14 -3 -8 -8z"/>
<path d="M4815 5030 c33 -16 75 -33 93 -36 23 -5 32 -11 28 -21 -9 -22 22 -73
44 -73 11 0 20 5 20 10 0 6 -9 10 -20 10 -21 0 -37 38 -26 65 4 11 -2 15 -22
15 -15 0 -54 12 -87 26 -88 37 -98 38 -30 4z"/>
<path d="M4883 4963 c9 -2 23 -2 30 0 6 3 -1 5 -18 5 -16 0 -22 -2 -12 -5z"/>
<path d="M4785 4910 c27 -12 43 -12 25 0 -8 5 -22 9 -30 9 -10 0 -8 -3 5 -9z"/>
<path d="M4980 4695 c-10 -12 -10 -15 4 -15 9 0 16 7 16 15 0 8 -2 15 -4 15
-2 0 -9 -7 -16 -15z"/>
<path d="M4877 4669 c7 -7 15 -10 18 -7 3 3 -2 9 -12 12 -14 6 -15 5 -6 -5z"/>
<path d="M4846 4658 c5 -7 2 -9 -7 -6 -8 3 -26 0 -40 -8 l-24 -14 30 6 c54 11
65 15 60 25 -4 5 -11 9 -16 9 -6 0 -7 -5 -3 -12z"/>
<path d="M4615 4413 c-4 -16 -8 -37 -10 -47 -2 -10 0 -15 4 -10 10 11 24 84
17 84 -3 0 -8 -12 -11 -27z"/>
<path d="M4559 4323 c-13 -17 -13 -17 6 -3 11 8 22 16 24 17 2 2 0 3 -6 3 -6
0 -17 -8 -24 -17z"/>
<path d="M114 2418 l-19 -23 23 19 c21 18 27 26 19 26 -2 0 -12 -10 -23 -22z"/>
<path d="M45 1855 c22 -14 49 -25 60 -24 15 1 14 3 -7 9 -15 4 -37 15 -50 24
-12 9 -27 16 -33 16 -5 0 8 -12 30 -25z"/>
<path d="M0 1740 c0 -5 1 -10 3 -10 1 0 17 -4 35 -9 41 -12 42 4 1 18 -39 13
-39 13 -39 1z"/>
<path d="M15 1600 c3 -5 11 -10 16 -10 6 0 7 5 4 10 -3 6 -11 10 -16 10 -6 0
-7 -4 -4 -10z"/>
<path d="M55 1528 c0 -37 -3 -43 -20 -41 -11 1 -14 0 -7 -3 10 -5 10 -9 0 -22
-12 -16 -11 -16 12 -1 20 13 26 26 28 63 2 25 -1 46 -5 46 -4 0 -8 -19 -8 -42z"/>
<path d="M150 1340 c-8 -5 -10 -10 -5 -10 6 0 17 5 25 10 8 5 11 10 5 10 -5 0
-17 -5 -25 -10z"/>
<path d="M253 1343 c15 -2 39 -2 55 0 15 2 2 4 -28 4 -30 0 -43 -2 -27 -4z"/>
<path d="M225 1319 c4 -6 10 -8 13 -5 3 3 10 1 17 -4 8 -7 12 -5 12 5 0 9 -10
15 -24 15 -15 0 -22 -4 -18 -11z"/>
<path d="M180 1310 c0 -6 7 -10 15 -10 8 0 15 2 15 4 0 2 -7 6 -15 10 -8 3
-15 1 -15 -4z"/>
<path d="M1446 285 c-3 -9 -6 -24 -5 -33 0 -9 5 -4 10 12 9 32 6 48 -5 21z"/>
<path d="M1449 193 c-2 -24 -1 -43 3 -43 5 0 8 -10 8 -22 0 -12 2 -19 5 -16 3
2 1 31 -3 64 l-8 59 -5 -42z"/>
<path d="M2356 105 c4 -8 7 -15 9 -15 2 0 5 7 9 15 3 9 0 15 -9 15 -9 0 -12
-6 -9 -15z"/>
<path d="M2331 94 c0 -11 3 -14 6 -6 3 7 2 16 -1 19 -3 4 -6 -2 -5 -13z"/>
<path d="M1445 91 c-3 -5 -1 -12 4 -15 5 -3 11 1 15 9 6 16 -9 21 -19 6z"/>
<path d="M2347 73 c-4 -3 -7 -16 -6 -27 0 -19 1 -19 10 3 10 24 8 36 -4 24z"/>
<path d="M2305 50 c-3 -5 -2 -10 4 -10 5 0 12 -8 14 -17 3 -11 5 -7 6 10 1 27
-12 36 -24 17z"/>
<path d="M1467 34 c-4 -4 -7 -14 -7 -23 0 -11 3 -12 11 -4 6 6 10 16 7 23 -2
6 -7 8 -11 4z"/>
<path d="M1441 14 c0 -11 3 -14 6 -6 3 7 2 16 -1 19 -3 4 -6 -2 -5 -13z"/>
</g>
</svg>
