<?xml version="1.0" standalone="no"?>
<!DOCTYPE svg PUBLIC "-//W3C//DTD SVG 20010904//EN"
 "http://www.w3.org/TR/2001/REC-SVG-20010904/DTD/svg10.dtd">
<svg version="1.0" xmlns="http://www.w3.org/2000/svg"
 width="164.000000pt" height="170.000000pt" viewBox="0 0 164.000000 170.000000"
 preserveAspectRatio="xMidYMid meet">

<g transform="translate(0.000000,170.000000) scale(0.100000,-0.100000)"
fill="#000000" stroke="none">
<path d="M285 1546 c-72 -29 -141 -58 -153 -65 -51 -27 -52 -38 -52 -637 0
-615 -1 -607 63 -637 92 -43 287 -117 308 -117 37 0 67 26 79 68 14 51 14
1323 0 1374 -13 44 -43 68 -85 68 -16 -1 -88 -25 -160 -54z m193 -692 c2 -615
0 -693 -13 -704 -13 -11 -39 -4 -161 44 -89 36 -150 66 -159 79 -13 18 -15
101 -15 573 0 518 1 553 18 574 22 27 266 129 302 127 l25 -2 3 -691z"/>
<path d="M392 938 c-12 -12 -17 -143 -6 -172 3 -9 14 -16 24 -16 24 0 30 19
30 96 0 87 -18 122 -48 92z"/>
<path d="M585 1490 c-4 -6 -1 -17 5 -25 10 -12 49 -15 210 -15 l199 0 20 -26
c20 -25 21 -39 21 -234 0 -185 2 -209 17 -214 9 -4 20 -3 25 2 5 5 8 109 6
231 l-3 223 -37 34 -38 34 -209 0 c-135 0 -212 -4 -216 -10z"/>
<path d="M1295 1109 c-8 -12 2 -25 117 -138 48 -47 88 -89 88 -93 0 -5 -194
-8 -431 -8 l-430 0 3 -22 3 -23 430 -3 429 -2 -108 -109 c-76 -76 -107 -114
-103 -125 4 -9 13 -16 21 -16 21 0 276 257 276 278 0 22 -250 272 -272 272 -9
0 -20 -5 -23 -11z"/>
<path d="M1047 714 c-4 -4 -7 -101 -7 -215 0 -276 22 -253 -242 -259 -195 -5
-203 -6 -203 -25 0 -19 8 -20 200 -23 184 -2 203 -1 232 17 60 37 64 57 61
293 -3 183 -5 213 -18 216 -9 1 -19 0 -23 -4z"/>
</g>
</svg>
