<?xml version="1.0" standalone="no"?>
<!DOCTYPE svg PUBLIC "-//W3C//DTD SVG 20010904//EN"
 "http://www.w3.org/TR/2001/REC-SVG-20010904/DTD/svg10.dtd">
<svg version="1.0" xmlns="http://www.w3.org/2000/svg"
 width="1080.000000pt" height="1080.000000pt" viewBox="0 0 1080.000000 1080.000000"
 preserveAspectRatio="xMidYMid meet">

<g transform="translate(0.000000,1080.000000) scale(0.100000,-0.100000)"
fill="#000000" stroke="none">
<path d="M5256 8629 c-439 -42 -870 -307 -1109 -682 -98 -152 -178 -355 -213
-534 -15 -73 -18 -165 -21 -549 l-4 -462 -232 -5 c-259 -5 -304 -13 -427 -75
-53 -26 -97 -59 -151 -112 -83 -83 -125 -149 -161 -255 l-23 -70 0 -1600 c0
-1528 1 -1603 18 -1660 57 -182 172 -321 332 -401 137 -67 9 -64 2131 -64
1336 0 1938 3 1980 11 230 42 421 206 497 429 l22 65 3 1577 c3 1764 7 1653
-69 1808 -76 153 -230 280 -395 326 -43 12 -122 17 -296 21 l-238 6 0 394 c0
429 -7 530 -50 698 -140 558 -591 997 -1136 1110 -157 32 -295 39 -458 24z
m429 -463 c107 -31 269 -109 345 -166 140 -103 273 -266 340 -413 84 -186 100
-317 100 -824 l0 -363 -1065 0 -1065 0 0 369 c0 393 9 530 42 650 106 386 410
677 798 762 130 29 381 21 505 -15z m-158 -2780 c250 -67 411 -308 374 -558
-21 -138 -124 -294 -234 -353 l-37 -20 0 -545 c0 -611 -1 -617 -66 -683 -49
-48 -98 -70 -160 -70 -66 0 -133 32 -170 80 -52 68 -54 92 -55 678 l0 540 -62
40 c-112 74 -184 194 -208 346 -22 140 34 301 141 409 123 124 316 179 477
136z"/>
</g>
</svg>
