<?xml version="1.0" standalone="no"?>
<!DOCTYPE svg PUBLIC "-//W3C//DTD SVG 20010904//EN"
 "http://www.w3.org/TR/2001/REC-SVG-20010904/DTD/svg10.dtd">
<svg version="1.0" xmlns="http://www.w3.org/2000/svg"
 width="168.000000pt" height="146.000000pt" viewBox="0 0 168.000000 146.000000"
 preserveAspectRatio="xMidYMid meet">

<g transform="translate(0.000000,146.000000) scale(0.100000,-0.100000)"
fill="#000000" stroke="none">
<path d="M380 1340 c-19 -19 -20 -33 -20 -415 0 -388 0 -395 20 -395 20 0 20
7 20 300 l0 300 555 0 555 0 -2 -547 -3 -548 -550 0 -550 0 -3 37 c-3 37 -2
38 26 32 22 -4 36 0 58 19 29 25 29 27 32 147 6 189 -5 200 -187 200 -117 0
-147 -10 -171 -53 -14 -25 -13 -30 8 -69 l23 -42 -76 -76 c-41 -41 -75 -84
-75 -93 0 -10 25 -45 57 -78 77 -81 97 -81 183 6 35 36 68 65 72 65 4 0 8 -22
8 -49 0 -89 -60 -81 595 -81 l583 0 11 28 c8 20 11 203 9 660 l-3 634 -24 19
c-21 17 -37 19 -135 17 -91 -2 -111 -6 -111 -18 0 -12 18 -15 90 -17 139 -4
135 -2 135 -78 l0 -65 -555 0 -555 0 0 58 c0 32 5 63 12 70 9 9 114 12 410 12
391 0 398 0 398 20 0 20 -7 20 -410 20 -397 0 -411 -1 -430 -20z m85 -1055 c0
-123 -1 -130 -20 -133 -12 -2 -31 8 -45 23 -13 14 -28 25 -34 25 -7 0 -47 -36
-91 -80 -44 -44 -84 -80 -90 -80 -13 0 -95 82 -95 96 0 5 36 45 80 89 44 44
80 84 80 91 0 6 -11 21 -25 34 -24 23 -32 50 -18 64 4 3 63 5 132 4 l126 -3 0
-130z"/>
<path d="M485 1260 c-4 -6 -1 -17 5 -25 10 -12 38 -15 120 -15 82 0 110 3 120
15 23 28 0 35 -120 35 -72 0 -121 -4 -125 -10z"/>
<path d="M1403 1254 c-8 -20 8 -36 26 -25 15 10 8 41 -9 41 -6 0 -13 -7 -17
-16z"/>
<path d="M865 1054 c-141 -50 -208 -224 -139 -362 74 -149 272 -187 402 -77
114 98 116 288 4 386 -75 66 -175 86 -267 53z m201 -59 c95 -55 130 -174 82
-275 -18 -38 -22 -41 -25 -23 -3 12 -19 35 -36 50 -30 26 -32 32 -32 96 0 86
-19 107 -99 107 -54 -1 -75 -11 -94 -47 -14 -26 -15 -92 -3 -113 7 -10 2 -19
-20 -32 -17 -10 -36 -33 -43 -50 l-14 -32 -16 33 c-44 85 -27 186 43 255 70
68 171 80 257 31z m-57 -117 c20 -34 6 -77 -30 -97 -24 -13 -29 -13 -53 2 -22
15 -26 25 -26 62 0 50 17 66 65 62 20 -1 34 -10 44 -29z m-77 -175 c2 -20 9
-28 23 -28 14 0 21 8 23 28 3 23 8 27 34 27 42 0 68 -25 68 -67 0 -29 -5 -36
-35 -49 -46 -19 -136 -18 -180 3 -28 13 -35 22 -35 45 0 36 32 68 69 68 25 0
30 -4 33 -27z"/>
<path d="M584 459 c-16 -18 -19 -40 -22 -164 -4 -167 6 -200 61 -210 17 -3
180 -5 360 -3 l329 3 19 24 c17 20 19 40 19 171 0 134 -2 150 -21 174 l-20 26
-353 0 c-346 0 -353 0 -372 -21z m714 -177 l3 -152 -343 2 -343 3 -3 140 c-1
76 0 145 2 152 4 11 72 13 343 11 l338 -3 3 -153z"/>
<path d="M1117 384 c-13 -13 -7 -24 18 -36 22 -10 24 -17 27 -87 2 -60 6 -76
18 -76 12 0 16 16 18 76 3 71 5 77 28 88 42 19 23 36 -42 39 -33 2 -63 0 -67
-4z"/>
<path d="M711 364 c-30 -21 -51 -71 -44 -107 3 -15 19 -38 35 -52 68 -58 168
-13 168 75 0 81 -93 130 -159 84z m99 -44 c11 -11 20 -29 20 -40 0 -26 -34
-60 -60 -60 -11 0 -29 9 -40 20 -11 11 -20 29 -20 40 0 11 9 29 20 40 11 11
29 20 40 20 11 0 29 -9 40 -20z"/>
<path d="M920 296 c0 -76 2 -86 22 -100 29 -20 77 -20 106 0 20 14 22 24 22
100 0 77 -2 84 -20 84 -18 0 -20 -7 -20 -69 0 -75 -13 -98 -50 -86 -18 6 -20
15 -20 81 0 67 -2 74 -20 74 -18 0 -20 -7 -20 -84z"/>
</g>
</svg>
